# Made in Blockbench 4.3.1
mtllib orca.mtl

o body
v 0.25 0.4375 0.375
v 0.25 0.4375 -0.4375
v 0.25 0 0.375
v 0.25 0 -0.4375
v -0.25 0.4375 -0.4375
v -0.25 0.4375 0.375
v -0.25 0 -0.4375
v -0.25 0 0.375
vt 0.09375 0.90625
vt 0.15625 0.90625
vt 0.15625 0.8515625
vt 0.09375 0.8515625
vt 0 0.90625
vt 0.09375 0.90625
vt 0.09375 0.8515625
vt 0 0.8515625
vt 0.25 0.90625
vt 0.3125 0.90625
vt 0.3125 0.8515625
vt 0.25 0.8515625
vt 0.15625 0.90625
vt 0.25 0.90625
vt 0.25 0.8515625
vt 0.15625 0.8515625
vt 0.15625 0.90625
vt 0.09375 0.90625
vt 0.09375 1
vt 0.15625 1
vt 0.1015625 0.4375
vt 0.1640625 0.4375
vt 0.1640625 0.53125
vt 0.1015625 0.53125
vn 0 0 -1
vn 1 0 0
vn 0 0 1
vn -1 0 0
vn 0 1 0
vn 0 -1 0
usemtl m_0
f 4/4/1 7/3/1 5/2/1 2/1/1
f 3/8/2 4/7/2 2/6/2 1/5/2
f 8/12/3 3/11/3 1/10/3 6/9/3
f 7/16/4 8/15/4 6/14/4 5/13/4
f 6/20/5 1/19/5 2/18/5 5/17/5
f 7/24/6 4/23/6 3/22/6 8/21/6
o head
v 0.21875 0.421875 -0.4375
v 0.21875 0.421875 -0.78125
v 0.21875 0.171875 -0.4375
v 0.21875 0.171875 -0.78125
v -0.21875 0.421875 -0.78125
v -0.21875 0.421875 -0.4375
v -0.21875 0.171875 -0.78125
v -0.21875 0.171875 -0.4375
vt 0.2421875 0.75
vt 0.3046875 0.75
vt 0.3046875 0.7265625
vt 0.2421875 0.7265625
vt 0.2421875 0.75
vt 0.3046875 0.75
vt 0.3046875 0.7265625
vt 0.2421875 0.7265625
vt 0.2421875 0.75
vt 0.3046875 0.75
vt 0.3046875 0.7265625
vt 0.2421875 0.7265625
vt 0.2421875 0.75
vt 0.3046875 0.75
vt 0.3046875 0.7265625
vt 0.2421875 0.7265625
vt 0.2421875 0.75
vt 0.3046875 0.75
vt 0.3046875 0.7265625
vt 0.2421875 0.7265625
vt 0.3046875 0.7265625
vt 0.2421875 0.7265625
vt 0.2421875 0.75
vt 0.3046875 0.75
vn 0 0 -1
vn 1 0 0
vn 0 0 1
vn -1 0 0
vn 0 1 0
vn 0 -1 0
usemtl m_0
f 12/28/7 15/27/7 13/26/7 10/25/7
f 11/32/8 12/31/8 10/30/8 9/29/8
f 16/36/9 11/35/9 9/34/9 14/33/9
f 15/40/10 16/39/10 14/38/10 13/37/10
f 14/44/11 9/43/11 10/42/11 13/41/11
f 15/48/12 12/47/12 11/46/12 16/45/12
o head
v 0.19375 0.359375 -0.59375
v 0.19375 0.359375 -1
v 0.19375 0.171875 -0.59375
v 0.19375 0.171875 -1
v -0.196875 0.359375 -1
v -0.196875 0.359375 -0.59375
v -0.196875 0.171875 -1
v -0.196875 0.171875 -0.59375
vt 0.21875 0.7578125
vt 0.2578125 0.7578125
vt 0.2578125 0.7265625
vt 0.21875 0.7265625
vt 0.28125 0.8359375
vt 0.3984375 0.8359375
vt 0.3984375 0.8125
vt 0.28125 0.8125
vt 0.28125 0.8359375
vt 0.3984375 0.8359375
vt 0.3984375 0.8125
vt 0.28125 0.8125
vt 0.28125 0.8359375
vt 0.3984375 0.8359375
vt 0.3984375 0.8125
vt 0.28125 0.8125
vt 0.203125 0.75
vt 0.3046875 0.75
vt 0.3046875 0.7265625
vt 0.203125 0.7265625
vt 0.3984375 0.8125
vt 0.28125 0.8125
vt 0.28125 0.8359375
vt 0.3984375 0.8359375
vn 0 0 -1
vn 1 0 0
vn 0 0 1
vn -1 0 0
vn 0 1 0
vn 0 -1 0
usemtl m_0
f 20/52/13 23/51/13 21/50/13 18/49/13
f 19/56/14 20/55/14 18/54/14 17/53/14
f 24/60/15 19/59/15 17/58/15 22/57/15
f 23/64/16 24/63/16 22/62/16 21/61/16
f 22/68/17 17/67/17 18/66/17 21/65/17
f 23/72/18 20/71/18 19/70/18 24/69/18
o head
v 0.2 0.390625 -0.53125
v 0.2 0.390625 -0.9375
v 0.2 0.203125 -0.53125
v 0.2 0.203125 -0.9375
v -0.203125 0.390625 -0.9375
v -0.203125 0.390625 -0.53125
v -0.203125 0.203125 -0.9375
v -0.203125 0.203125 -0.53125
vt 0.2578125 0.7578125
vt 0.3125 0.7578125
vt 0.3125 0.734375
vt 0.2578125 0.734375
vt 0.2578125 0.7578125
vt 0.3125 0.7578125
vt 0.3125 0.734375
vt 0.2578125 0.734375
vt 0.2578125 0.7578125
vt 0.3125 0.7578125
vt 0.3125 0.734375
vt 0.2578125 0.734375
vt 0.2578125 0.7578125
vt 0.3125 0.7578125
vt 0.3125 0.734375
vt 0.2578125 0.734375
vt 0.2578125 0.7578125
vt 0.3125 0.7578125
vt 0.3125 0.734375
vt 0.2578125 0.734375
vt 0.3125 0.734375
vt 0.2578125 0.734375
vt 0.2578125 0.7578125
vt 0.3125 0.7578125
vn 0 0 -1
vn 1 0 0
vn 0 0 1
vn -1 0 0
vn 0 1 0
vn 0 -1 0
usemtl m_0
f 28/76/19 31/75/19 29/74/19 26/73/19
f 27/80/20 28/79/20 26/78/20 25/77/20
f 32/84/21 27/83/21 25/82/21 30/81/21
f 31/88/22 32/87/22 30/86/22 29/85/22
f 30/92/23 25/91/23 26/90/23 29/89/23
f 31/96/24 28/95/24 27/94/24 32/93/24
o head
v 0.16875 0.296875 -0.5
v 0.16875 0.296875 -1.03125
v 0.16875 0.171875 -0.5
v 0.16875 0.171875 -1.03125
v -0.171875 0.296875 -1.03125
v -0.171875 0.296875 -0.5
v -0.171875 0.171875 -1.03125
v -0.171875 0.171875 -0.5
vt 0.2421875 0.75
vt 0.296875 0.75
vt 0.296875 0.7265625
vt 0.2421875 0.7265625
vt 0.2421875 0.75
vt 0.296875 0.75
vt 0.296875 0.7265625
vt 0.2421875 0.7265625
vt 0.2421875 0.75
vt 0.296875 0.75
vt 0.296875 0.7265625
vt 0.2421875 0.7265625
vt 0.2421875 0.75
vt 0.296875 0.75
vt 0.296875 0.7265625
vt 0.2421875 0.7265625
vt 0.2421875 0.75
vt 0.296875 0.75
vt 0.296875 0.7265625
vt 0.2421875 0.7265625
vt 0.296875 0.7265625
vt 0.2421875 0.7265625
vt 0.2421875 0.75
vt 0.296875 0.75
vn 0 0 -1
vn 1 0 0
vn 0 0 1
vn -1 0 0
vn 0 1 0
vn 0 -1 0
usemtl m_0
f 36/100/25 39/99/25 37/98/25 34/97/25
f 35/104/26 36/103/26 34/102/26 33/101/26
f 40/108/27 35/107/27 33/106/27 38/105/27
f 39/112/28 40/111/28 38/110/28 37/109/28
f 38/116/29 33/115/29 34/114/29 37/113/29
f 39/120/30 36/119/30 35/118/30 40/117/30
o head
v 0.225 0.390625 -0.5125
v 0.225 0.390625 -0.78125
v 0.225 0.265625 -0.5125
v 0.225 0.265625 -0.78125
v 0.225 0.390625 -0.78125
v 0.225 0.390625 -0.5125
v 0.225 0.265625 -0.78125
v 0.225 0.265625 -0.5125
vt 0.1484375 0.9765625
vt 0.1484375 0.9765625
vt 0.1484375 0.9453125
vt 0.1484375 0.9453125
vt 0 1
vt 0 1
vt 0 1
vt 0 1
vt 0 1
vt 0 1
vt 0 0.96875
vt 0 0.96875
vt 0.375 0.9375
vt 0.40625 0.9375
vt 0.40625 0.921875
vt 0.375 0.921875
vt 0 1
vt 0 1
vt 0 0.9375
vt 0 0.9375
vt 0 0.9375
vt 0 0.9375
vt 0 1
vt 0 1
vn 0 0 -1
vn 1 0 0
vn 0 0 1
vn -1 0 0
vn 0 1 0
vn 0 -1 0
usemtl m_0
f 44/124/31 47/123/31 45/122/31 42/121/31
f 43/128/32 44/127/32 42/126/32 41/125/32
f 48/132/33 43/131/33 41/130/33 46/129/33
f 47/136/34 48/135/34 46/134/34 45/133/34
f 46/140/35 41/139/35 42/138/35 45/137/35
f 47/144/36 44/143/36 43/142/36 48/141/36
o head
v -0.225 0.390625 -0.5125
v -0.225 0.390625 -0.78125
v -0.225 0.265625 -0.5125
v -0.225 0.265625 -0.78125
v -0.225 0.390625 -0.78125
v -0.225 0.390625 -0.5125
v -0.225 0.265625 -0.78125
v -0.225 0.265625 -0.5125
vt 0.1484375 0.9765625
vt 0.1484375 0.9765625
vt 0.1484375 0.9453125
vt 0.1484375 0.9453125
vt 0 1
vt 0 1
vt 0 1
vt 0 1
vt 0 1
vt 0 1
vt 0 0.96875
vt 0 0.96875
vt 0.375 0.9375
vt 0.40625 0.9375
vt 0.40625 0.921875
vt 0.375 0.921875
vt 0 1
vt 0 1
vt 0 0.9375
vt 0 0.9375
vt 0 0.9375
vt 0 0.9375
vt 0 1
vt 0 1
vn 0 0 -1
vn 1 0 0
vn 0 0 1
vn -1 0 0
vn 0 1 0
vn 0 -1 0
usemtl m_0
f 52/148/37 55/147/37 53/146/37 50/145/37
f 51/152/38 52/151/38 50/150/38 49/149/38
f 56/156/39 51/155/39 49/154/39 54/153/39
f 55/160/40 56/159/40 54/158/40 53/157/40
f 54/164/41 49/163/41 50/162/41 53/161/41
f 55/168/42 52/167/42 51/166/42 56/165/42
o head
v -0.209375 0.265625 -0.75
v -0.209375 0.265625 -0.8125
v -0.209375 0.234375 -0.75
v -0.209375 0.234375 -0.8125
v -0.209375 0.265625 -0.8125
v -0.209375 0.265625 -0.75
v -0.209375 0.234375 -0.8125
v -0.209375 0.234375 -0.75
vt 0 1
vt 0 1
vt 0 0.9921875
vt 0 0.9921875
vt 0.0546875 0.3203125
vt 0.0625 0.3203125
vt 0.0625 0.3125
vt 0.0546875 0.3125
vt 0 1
vt 0 1
vt 0 0.9921875
vt 0 0.9921875
vt 0 1
vt 0.0078125 1
vt 0.0078125 0.9921875
vt 0 0.9921875
vt 0 1
vt 0 1
vt 0 0.9921875
vt 0 0.9921875
vt 0 0.9921875
vt 0 0.9921875
vt 0 1
vt 0 1
vn 0 0 -1
vn 1 0 0
vn 0 0 1
vn -1 0 0
vn 0 1 0
vn 0 -1 0
usemtl m_0
f 60/172/43 63/171/43 61/170/43 58/169/43
f 59/176/44 60/175/44 58/174/44 57/173/44
f 64/180/45 59/179/45 57/178/45 62/177/45
f 63/184/46 64/183/46 62/182/46 61/181/46
f 62/188/47 57/187/47 58/186/47 61/185/47
f 63/192/48 60/191/48 59/190/48 64/189/48
o head
v 0.203125 0.265625 -0.75
v 0.203125 0.265625 -0.8125
v 0.203125 0.234375 -0.75
v 0.203125 0.234375 -0.8125
v 0.203125 0.265625 -0.8125
v 0.203125 0.265625 -0.75
v 0.203125 0.234375 -0.8125
v 0.203125 0.234375 -0.75
vt 0 1
vt 0 1
vt 0 0.9921875
vt 0 0.9921875
vt 0.0546875 0.3203125
vt 0.0625 0.3203125
vt 0.0625 0.3125
vt 0.0546875 0.3125
vt 0 1
vt 0 1
vt 0 0.9921875
vt 0 0.9921875
vt 0 1
vt 0.0078125 1
vt 0.0078125 0.9921875
vt 0 0.9921875
vt 0 1
vt 0 1
vt 0 0.9921875
vt 0 0.9921875
vt 0 0.9921875
vt 0 0.9921875
vt 0 1
vt 0 1
vn 0 0 -1
vn 1 0 0
vn 0 0 1
vn -1 0 0
vn 0 1 0
vn 0 -1 0
usemtl m_0
f 68/196/49 71/195/49 69/194/49 66/193/49
f 67/200/50 68/199/50 66/198/50 65/197/50
f 72/204/51 67/203/51 65/202/51 70/201/51
f 71/208/52 72/207/52 70/206/52 69/205/52
f 70/212/53 65/211/53 66/210/53 69/209/53
f 71/216/54 68/215/54 67/214/54 72/213/54
o head
v -0.15625000000000006 0.16637875 -0.933225
v -0.15625 0.16637875 -0.464475
v -0.15625000000000006 0.16637875 -0.933225
v -0.15625 0.16637875 -0.464475
v 0.15625 0.16637875 -0.464475
v 0.15624999999999994 0.16637875 -0.933225
v 0.15625 0.16637875 -0.464475
v 0.15624999999999994 0.16637875 -0.933225
vt 0 1
vt 0.046875 1
vt 0.046875 1
vt 0 1
vt 0 1
vt 0.0625 1
vt 0.0625 1
vt 0 1
vt 0 1
vt 0.046875 1
vt 0.046875 1
vt 0 1
vt 0.1171875 0.6640625
vt 0.1796875 0.6640625
vt 0.1796875 0.6640625
vt 0.1171875 0.6640625
vt 0.171875 0.53125
vt 0.234375 0.53125
vt 0.234375 0.4375
vt 0.171875 0.4375
vt 0 1
vt 0 1
vt 0 1
vt 0 1
vn 1.2246467991473532e-16 0 1
vn -1 0 1.2246467991473532e-16
vn -1.2246467991473532e-16 0 -1
vn 1 0 -1.2246467991473532e-16
vn 0 1 0
vn 0 -1 0
usemtl m_0
f 76/220/55 79/219/55 77/218/55 74/217/55
f 75/224/56 76/223/56 74/222/56 73/221/56
f 80/228/57 75/227/57 73/226/57 78/225/57
f 79/232/58 80/231/58 78/230/58 77/229/58
f 78/236/59 73/235/59 74/234/59 77/233/59
f 79/240/60 76/239/60 75/238/60 80/237/60
o jaw
v 0.218125 0.17750000000000002 -0.438125
v 0.218125 0.17750000000000002 -0.718125
v 0.218125 0.0225 -0.438125
v 0.218125 0.0225 -0.718125
v -0.218125 0.17750000000000002 -0.718125
v -0.218125 0.17750000000000002 -0.438125
v -0.218125 0.0225 -0.718125
v -0.218125 0.0225 -0.438125
vt 0.3984375 0.703125
vt 0.4375 0.703125
vt 0.4375 0.6875
vt 0.3984375 0.6875
vt 0.3984375 0.703125
vt 0.4375 0.703125
vt 0.4375 0.6875
vt 0.3984375 0.6875
vt 0.3984375 0.703125
vt 0.4375 0.703125
vt 0.4375 0.6875
vt 0.3984375 0.6875
vt 0.3984375 0.703125
vt 0.4375 0.703125
vt 0.4375 0.6875
vt 0.3984375 0.6875
vt 0.3984375 0.703125
vt 0.4375 0.703125
vt 0.4375 0.6875
vt 0.3984375 0.6875
vt 0.4375 0.6875
vt 0.40625 0.6875
vt 0.40625 0.71875
vt 0.4375 0.71875
vn 0 0 -1
vn 1 0 0
vn 0 0 1
vn -1 0 0
vn 0 1 0
vn 0 -1 0
usemtl m_0
f 84/244/61 87/243/61 85/242/61 82/241/61
f 83/248/62 84/247/62 82/246/62 81/245/62
f 88/252/63 83/251/63 81/250/63 86/249/63
f 87/256/64 88/255/64 86/254/64 85/253/64
f 86/260/65 81/259/65 82/258/65 85/257/65
f 87/264/66 84/263/66 83/262/66 88/261/66
o jaw
v 0.186875 0.17750000000000002 -0.625625
v 0.186875 0.17750000000000002 -0.905625
v 0.186875 0.038125 -0.625625
v 0.186875 0.038125 -0.905625
v -0.186875 0.17750000000000002 -0.905625
v -0.186875 0.17750000000000002 -0.625625
v -0.186875 0.038125 -0.905625
v -0.186875 0.038125 -0.625625
vt 0.3828125 0.7265625
vt 0.40625 0.7265625
vt 0.40625 0.7109375
vt 0.3828125 0.7109375
vt 0.3828125 0.7265625
vt 0.40625 0.7265625
vt 0.40625 0.7109375
vt 0.3828125 0.7109375
vt 0.3828125 0.7265625
vt 0.40625 0.7265625
vt 0.40625 0.7109375
vt 0.3828125 0.7109375
vt 0.3828125 0.7265625
vt 0.40625 0.7265625
vt 0.40625 0.7109375
vt 0.3828125 0.7109375
vt 0.3828125 0.7265625
vt 0.40625 0.7265625
vt 0.40625 0.7109375
vt 0.3828125 0.7109375
vt 0.4140625 0.7109375
vt 0.3828125 0.7109375
vt 0.3828125 0.7421875
vt 0.4140625 0.7421875
vn 0 0 -1
vn 1 0 0
vn 0 0 1
vn -1 0 0
vn 0 1 0
vn 0 -1 0
usemtl m_0
f 92/268/67 95/267/67 93/266/67 90/265/67
f 91/272/68 92/271/68 90/270/68 89/269/68
f 96/276/69 91/275/69 89/274/69 94/273/69
f 95/280/70 96/279/70 94/278/70 93/277/70
f 94/284/71 89/283/71 90/282/71 93/281/71
f 95/288/72 92/287/72 91/286/72 96/285/72
o jaw
v 0.155625 0.17750000000000002 -0.813125
v 0.155625 0.17750000000000002 -0.968125
v 0.155625 0.05375 -0.813125
v 0.155625 0.05375 -0.968125
v -0.155625 0.17750000000000002 -0.968125
v -0.155625 0.17750000000000002 -0.813125
v -0.155625 0.05375 -0.968125
v -0.155625 0.05375 -0.813125
vt 0.375 0.703125
vt 0.40625 0.703125
vt 0.40625 0.6875
vt 0.375 0.6875
vt 0.375 0.6953125
vt 0.4375 0.6953125
vt 0.4375 0.6875
vt 0.375 0.6875
vt 0.375 0.6953125
vt 0.4375 0.6953125
vt 0.4375 0.6875
vt 0.375 0.6875
vt 0.375 0.6953125
vt 0.4375 0.6953125
vt 0.4375 0.6875
vt 0.375 0.6875
vt 0.375 0.6953125
vt 0.4375 0.6953125
vt 0.4375 0.6875
vt 0.375 0.6875
vt 0.4375 0.6875
vt 0.375 0.6875
vt 0.375 0.6953125
vt 0.4375 0.6953125
vn 0 0 -1
vn 1 0 0
vn 0 0 1
vn -1 0 0
vn 0 1 0
vn 0 -1 0
usemtl m_0
f 100/292/73 103/291/73 101/290/73 98/289/73
f 99/296/74 100/295/74 98/294/74 97/293/74
f 104/300/75 99/299/75 97/298/75 102/297/75
f 103/304/76 104/303/76 102/302/76 101/301/76
f 102/308/77 97/307/77 98/306/77 101/305/77
f 103/312/78 100/311/78 99/310/78 104/309/78
o jaw
v -0.15625000000000006 0.178125 -0.9375
v -0.15625 0.178125 -0.40625
v -0.15625000000000006 0.178125 -0.9375
v -0.15625 0.178125 -0.40625
v 0.15625 0.178125 -0.40625
v 0.15624999999999994 0.178125 -0.9375
v 0.15625 0.178125 -0.40625
v 0.15624999999999994 0.178125 -0.9375
vt 0 1
vt 0.046875 1
vt 0.046875 1
vt 0 1
vt 0 1
vt 0.0625 1
vt 0.0625 1
vt 0 1
vt 0 1
vt 0.046875 1
vt 0.046875 1
vt 0 1
vt 0.1171875 0.6640625
vt 0.1796875 0.6640625
vt 0.1796875 0.6640625
vt 0.1171875 0.6640625
vt 0.171875 0.53125
vt 0.234375 0.53125
vt 0.234375 0.4375
vt 0.171875 0.4375
vn 1.2246467991473532e-16 0 1
vn -1 0 1.2246467991473532e-16
vn -1.2246467991473532e-16 0 -1
vn 1 0 -1.2246467991473532e-16
vn 0 1 0
usemtl m_0
f 108/316/79 111/315/79 109/314/79 106/313/79
f 107/320/80 108/319/80 106/318/80 105/317/80
f 112/324/81 107/323/81 105/322/81 110/321/81
f 111/328/82 112/327/82 110/326/82 109/325/82
f 110/332/83 105/331/83 106/330/83 109/329/83
o tail
v 0.125 0.375 0.6875
v 0.125 0.375 0.3125
v 0.125 0.0625 0.6875
v 0.125 0.0625 0.3125
v -0.125 0.375 0.3125
v -0.125 0.375 0.6875
v -0.125 0.0625 0.3125
v -0.125 0.0625 0.6875
vt 0.3125 0.8515625
vt 0.34375 0.8515625
vt 0.34375 0.8125
vt 0.3125 0.8125
vt 0.2265625 0.8515625
vt 0.3125 0.8515625
vt 0.3125 0.8125
vt 0.2265625 0.8125
vt 0.4296875 0.8515625
vt 0.4609375 0.8515625
vt 0.4609375 0.8125
vt 0.4296875 0.8125
vt 0.34375 0.8515625
vt 0.4296875 0.8515625
vt 0.4296875 0.8125
vt 0.34375 0.8125
vt 0.34375 0.8515625
vt 0.3125 0.8515625
vt 0.3125 0.9375
vt 0.34375 0.9375
vt 0.34375 0.8515625
vt 0.375 0.8515625
vt 0.375 0.9375
vt 0.34375 0.9375
vn 0 0 -1
vn 1 0 0
vn 0 0 1
vn -1 0 0
vn 0 1 0
vn 0 -1 0
usemtl m_0
f 116/336/84 119/335/84 117/334/84 114/333/84
f 115/340/85 116/339/85 114/338/85 113/337/85
f 120/344/86 115/343/86 113/342/86 118/341/86
f 119/348/87 120/347/87 118/346/87 117/345/87
f 118/352/88 113/351/88 114/350/88 117/349/88
f 119/356/89 116/355/89 115/354/89 120/353/89
o bone
v 0.09375 0.34375 0.84375
v 0.09375 0.34375 0.53125
v 0.09375 0.09375 0.84375
v 0.09375 0.09375 0.53125
v -0.09375 0.34375 0.53125
v -0.09375 0.34375 0.84375
v -0.09375 0.09375 0.53125
v -0.09375 0.09375 0.84375
vt 0.3125 0.8515625
vt 0.34375 0.8515625
vt 0.34375 0.8125
vt 0.3125 0.8125
vt 0.2265625 0.8515625
vt 0.3125 0.8515625
vt 0.3125 0.8125
vt 0.2265625 0.8125
vt 0.4296875 0.8515625
vt 0.4609375 0.8515625
vt 0.4609375 0.8125
vt 0.4296875 0.8125
vt 0.34375 0.8515625
vt 0.4296875 0.8515625
vt 0.4296875 0.8125
vt 0.34375 0.8125
vt 0.34375 0.8515625
vt 0.3125 0.8515625
vt 0.3125 0.9375
vt 0.34375 0.9375
vt 0.34375 0.8515625
vt 0.375 0.8515625
vt 0.375 0.9375
vt 0.34375 0.9375
vn 0 0 -1
vn 1 0 0
vn 0 0 1
vn -1 0 0
vn 0 1 0
vn 0 -1 0
usemtl m_0
f 124/360/90 127/359/90 125/358/90 122/357/90
f 123/364/91 124/363/91 122/362/91 121/361/91
f 128/368/92 123/367/92 121/366/92 126/365/92
f 127/372/93 128/371/93 126/370/93 125/369/93
f 126/376/94 121/375/94 122/374/94 125/373/94
f 127/380/95 124/379/95 123/378/95 128/377/95
o bone2
v 0.06875 0.31875 1.06875
v 0.06875 0.31875 0.80625
v 0.06875 0.11875 1.06875
v 0.06875 0.11875 0.80625
v -0.06875 0.31875 0.80625
v -0.06875 0.31875 1.06875
v -0.06875 0.11875 0.80625
v -0.06875 0.11875 1.06875
vt 0.3125 0.8515625
vt 0.34375 0.8515625
vt 0.34375 0.8125
vt 0.3125 0.8125
vt 0.2265625 0.8515625
vt 0.3125 0.8515625
vt 0.3125 0.8125
vt 0.2265625 0.8125
vt 0.4296875 0.8515625
vt 0.4609375 0.8515625
vt 0.4609375 0.8125
vt 0.4296875 0.8125
vt 0.34375 0.8515625
vt 0.4296875 0.8515625
vt 0.4296875 0.8125
vt 0.34375 0.8125
vt 0.34375 0.8515625
vt 0.3125 0.8515625
vt 0.3125 0.9375
vt 0.34375 0.9375
vt 0.34375 0.8515625
vt 0.375 0.8515625
vt 0.375 0.9375
vt 0.34375 0.9375
vn 0 0 -1
vn 1 0 0
vn 0 0 1
vn -1 0 0
vn 0 1 0
vn 0 -1 0
usemtl m_0
f 132/384/96 135/383/96 133/382/96 130/381/96
f 131/388/97 132/387/97 130/386/97 129/385/97
f 136/392/98 131/391/98 129/390/98 134/389/98
f 135/396/99 136/395/99 134/394/99 133/393/99
f 134/400/100 129/399/100 130/398/100 133/397/100
f 135/404/101 132/403/101 131/402/101 136/401/101
o tail_fin
v 0.4041435647729407 0.25 1.4642997189883058
v 0.5362117715669094 0.25 1.1810785355393527
v 0.4041435647729407 0.1875 1.4642997189883058
v 0.5362117715669094 0.1875 1.1810785355393527
v 0.026413641358793715 0.25 0.9433557633102094
v -0.10565456543517486 0.25 1.2265769467591625
v 0.026413641358793715 0.1875 0.9433557633102094
v -0.10565456543517486 0.1875 1.2265769467591625
vt 0.046875 0.6640625
vt 0.125 0.6640625
vt 0.125 0.65625
vt 0.046875 0.65625
vt 0 0.6640625
vt 0.046875 0.6640625
vt 0.046875 0.65625
vt 0 0.65625
vt 0.171875 0.6640625
vt 0.25 0.6640625
vt 0.25 0.65625
vt 0.171875 0.65625
vt 0.125 0.6640625
vt 0.171875 0.6640625
vt 0.171875 0.65625
vt 0.125 0.65625
vt 0.125 0.6640625
vt 0.046875 0.6640625
vt 0.046875 0.7109375
vt 0.125 0.7109375
vt 0.125 0.6640625
vt 0.203125 0.6640625
vt 0.203125 0.7109375
vt 0.125 0.7109375
vn 0.42261826174069944 0 -0.9063077870366499
vn 0.9063077870366499 0 0.42261826174069944
vn -0.42261826174069944 0 0.9063077870366499
vn -0.9063077870366499 0 -0.42261826174069944
vn 0 1 0
vn 0 -1 0
usemtl m_0
f 140/408/102 143/407/102 141/406/102 138/405/102
f 139/412/103 140/411/103 138/410/103 137/409/103
f 144/416/104 139/415/104 137/414/104 142/413/104
f 143/420/105 144/419/105 142/418/105 141/417/105
f 142/424/106 137/423/106 138/422/106 141/421/106
f 143/428/107 140/427/107 139/426/107 144/425/107
o tail_fin
v 0.08630610630898693 0.250625 1.2352967004948898
v -0.021002713659441636 0.250625 0.940468140723311
v 0.08630610630898693 0.186875 1.2352967004948898
v -0.021002713659441636 0.186875 0.940468140723311
v -0.5507544286274975 0.250625 1.1332819965231566
v -0.4434456086590689 0.250625 1.4281105562947356
v -0.5507544286274975 0.186875 1.1332819965231566
v -0.4434456086590689 0.186875 1.4281105562947356
vt 0.265625 0.953125
vt 0.34375 0.953125
vt 0.34375 0.9453125
vt 0.265625 0.9453125
vt 0.21875 0.953125
vt 0.265625 0.953125
vt 0.265625 0.9453125
vt 0.21875 0.9453125
vt 0.390625 0.953125
vt 0.46875 0.953125
vt 0.46875 0.9453125
vt 0.390625 0.9453125
vt 0.34375 0.953125
vt 0.390625 0.953125
vt 0.390625 0.9453125
vt 0.34375 0.9453125
vt 0.34375 0.953125
vt 0.265625 0.953125
vt 0.265625 1
vt 0.34375 1
vt 0.34375 0.953125
vt 0.421875 0.953125
vt 0.421875 1
vt 0.34375 1
vn -0.34202014332566866 0 -0.9396926207859084
vn 0.9396926207859084 0 -0.34202014332566866
vn 0.34202014332566866 0 0.9396926207859084
vn -0.9396926207859084 0 0.34202014332566866
vn 0 1 0
vn 0 -1 0
usemtl m_0
f 148/432/108 151/431/108 149/430/108 146/429/108
f 147/436/109 148/435/109 146/434/109 145/433/109
f 152/440/110 147/439/110 145/438/110 150/437/110
f 151/444/111 152/443/111 150/442/111 149/441/111
f 150/448/112 145/447/112 146/446/112 149/445/112
f 151/452/113 148/451/113 147/450/113 152/449/113
o back_fin
v 0.03125 0.6820411733532964 0.17019226320958222
v 0.03125 0.8070411733532964 -0.046314087736527454
v 0.03125 0.30315505919760444 -0.04855773679041775
v 0.03125 0.42815505919760444 -0.26506408773652745
v -0.03125 0.8070411733532964 -0.046314087736527454
v -0.03125 0.6820411733532964 0.17019226320958222
v -0.03125 0.42815505919760444 -0.26506408773652745
v -0.03125 0.30315505919760444 -0.04855773679041775
vt 0.03125 0.96875
vt 0.0390625 0.96875
vt 0.0390625 0.9140625
vt 0.03125 0.9140625
vt 0 0.96875
vt 0.03125 0.96875
vt 0.03125 0.9140625
vt 0 0.9140625
vt 0.0703125 0.96875
vt 0.078125 0.96875
vt 0.078125 0.9140625
vt 0.0703125 0.9140625
vt 0.0390625 0.96875
vt 0.0703125 0.96875
vt 0.0703125 0.9140625
vt 0.0390625 0.9140625
vt 0.0390625 0.96875
vt 0.03125 0.96875
vt 0.03125 1
vt 0.0390625 1
vt 0.0390625 0.96875
vt 0.046875 0.96875
vt 0.046875 1
vt 0.0390625 1
vn 0 0.49999999999999994 -0.8660254037844387
vn 1 0 0
vn 0 -0.49999999999999994 0.8660254037844387
vn -1 0 0
vn 0 0.8660254037844387 0.49999999999999994
vn 0 -0.8660254037844387 -0.49999999999999994
usemtl m_0
f 156/456/114 159/455/114 157/454/114 154/453/114
f 155/460/115 156/459/115 154/458/115 153/457/115
f 160/464/116 155/463/116 153/462/116 158/461/116
f 159/468/117 160/467/117 158/466/117 157/465/117
f 158/472/118 153/471/118 154/470/118 157/469/118
f 159/476/119 156/475/119 155/474/119 160/473/119
o left_fin
v -0.14682449927549446 0.14381578230733788 -0.17088940827552346
v -0.2461073147672702 0.10767979269418812 -0.39746635503468597
v -0.12544824031764018 0.08508499350821859 -0.17088940827552346
v -0.22473105580941588 0.04894900389506884 -0.39746635503468597
v -0.6719326845868434 -0.04730796691553418 -0.18615722416433625
v -0.5726498690950678 -0.011171977302384437 0.04041972259482626
v -0.6505564256289892 -0.10603875571465346 -0.18615722416433625
v -0.5512736101372134 -0.0699027661015037 0.04041972259482626
vt 0.25 0.6328125
vt 0.3125 0.6328125
vt 0.3125 0.625
vt 0.25 0.625
vt 0.21875 0.6328125
vt 0.25 0.6328125
vt 0.25 0.625
vt 0.21875 0.625
vt 0.34375 0.6328125
vt 0.40625 0.6328125
vt 0.40625 0.625
vt 0.34375 0.625
vt 0.3125 0.6328125
vt 0.34375 0.6328125
vt 0.34375 0.625
vt 0.3125 0.625
vt 0.3125 0.6328125
vt 0.25 0.6328125
vt 0.25 0.6640625
vt 0.3125 0.6640625
vt 0.3125 0.6328125
vt 0.375 0.6328125
vt 0.375 0.6640625
vt 0.3125 0.6640625
vn -0.39713126196710286 -0.144543958452599 -0.9063077870366499
vn 0.8516507396391465 0.30997551921944466 -0.42261826174069944
vn 0.39713126196710286 0.144543958452599 0.9063077870366499
vn -0.8516507396391465 -0.30997551921944466 0.42261826174069944
vn -0.34202014332566866 0.9396926207859084 0
vn 0.34202014332566866 -0.9396926207859084 0
usemtl m_0
f 164/480/120 167/479/120 165/478/120 162/477/120
f 163/484/121 164/483/121 162/482/121 161/481/121
f 168/488/122 163/487/122 161/486/122 166/485/122
f 167/492/123 168/491/123 166/490/123 165/489/123
f 166/496/124 161/495/124 162/494/124 165/493/124
f 167/500/125 164/499/125 163/498/125 168/497/125
o right_fin
v 0.5726498690950678 -0.011171977302384437 0.04041972259482626
v 0.6719326845868434 -0.04730796691553418 -0.18615722416433625
v 0.5512736101372134 -0.0699027661015037 0.04041972259482626
v 0.6505564256289892 -0.10603875571465346 -0.18615722416433625
v 0.2461073147672702 0.10767979269418812 -0.39746635503468597
v 0.14682449927549446 0.14381578230733788 -0.17088940827552346
v 0.22473105580941588 0.04894900389506884 -0.39746635503468597
v 0.12544824031764018 0.08508499350821859 -0.17088940827552346
vt 0.25 0.78125
vt 0.3125 0.78125
vt 0.3125 0.7734375
vt 0.25 0.7734375
vt 0.21875 0.78125
vt 0.25 0.78125
vt 0.25 0.7734375
vt 0.21875 0.7734375
vt 0.34375 0.78125
vt 0.40625 0.78125
vt 0.40625 0.7734375
vt 0.34375 0.7734375
vt 0.3125 0.78125
vt 0.34375 0.78125
vt 0.34375 0.7734375
vt 0.3125 0.7734375
vt 0.3125 0.78125
vt 0.25 0.78125
vt 0.25 0.8125
vt 0.3125 0.8125
vt 0.3125 0.78125
vt 0.375 0.78125
vt 0.375 0.8125
vt 0.3125 0.8125
vn 0.39713126196710286 -0.144543958452599 -0.9063077870366499
vn 0.8516507396391465 -0.30997551921944466 0.42261826174069944
vn -0.39713126196710286 0.144543958452599 0.9063077870366499
vn -0.8516507396391465 0.30997551921944466 -0.42261826174069944
vn 0.34202014332566866 0.9396926207859084 0
vn -0.34202014332566866 -0.9396926207859084 0
usemtl m_0
f 172/504/126 175/503/126 173/502/126 170/501/126
f 171/508/127 172/507/127 170/506/127 169/505/127
f 176/512/128 171/511/128 169/510/128 174/509/128
f 175/516/129 176/515/129 174/514/129 173/513/129
f 174/520/130 169/519/130 170/518/130 173/517/130
f 175/524/131 172/523/131 171/522/131 176/521/131