# Made in Blockbench 4.2.5
mtllib StormBreaker.mtl

o cube
v 0.0625 0.8125 0.0625
v 0.0625 0.8125 0
v 0.0625 -0.4375 0.0625
v 0.0625 -0.4375 0
v 0 0.8125 0
v 0 0.8125 0.0625
v 0 -0.4375 0
v 0 -0.4375 0.0625
vt 0.1875 0.8125
vt 0.203125 0.8125
vt 0.203125 0.5
vt 0.1875 0.5
vt 0.21875 0.8125
vt 0.234375 0.8125
vt 0.234375 0.5
vt 0.21875 0.5
vt 0 0.75
vt 0.015625 0.75
vt 0.015625 0.4375
vt 0 0.4375
vt 0.03125 0.75
vt 0.046875 0.75
vt 0.046875 0.4375
vt 0.03125 0.4375
vt 0.296875 0.828125
vt 0.28125 0.828125
vt 0.28125 0.84375
vt 0.296875 0.84375
vt 0.390625 0.671875
vt 0.375 0.671875
vt 0.375 0.65625
vt 0.390625 0.65625
vn 0 0 -1
vn 1 0 0
vn 0 0 1
vn -1 0 0
vn 0 1 0
vn 0 -1 0
usemtl m_0
f 4/4/1 7/3/1 5/2/1 2/1/1
f 3/8/2 4/7/2 2/6/2 1/5/2
f 8/12/3 3/11/3 1/10/3 6/9/3
f 7/16/4 8/15/4 6/14/4 5/13/4
f 6/20/5 1/19/5 2/18/5 5/17/5
f 7/24/6 4/23/6 3/22/6 8/21/6
o cube
v 0.09375 0.7473191738241592 0.11963834764831845
v 0.09375 0.7915133476483185 0.07544417382415923
v 0.09375 0.6147366523516815 -0.01294417382415923
v 0.09375 0.6589308261758408 -0.05713834764831845
v -0.037500000000000006 0.7915133476483185 0.07544417382415923
v -0.037500000000000006 0.7473191738241592 0.11963834764831845
v -0.037500000000000006 0.6589308261758408 -0.05713834764831845
v -0.037500000000000006 0.6147366523516815 -0.01294417382415923
vt 0.3125 0.78125
vt 0.34375 0.78125
vt 0.34375 0.734375
vt 0.3125 0.734375
vt 0.390625 1
vt 0.40625 1
vt 0.40625 0.953125
vt 0.390625 0.953125
vt 0.0625 0.671875
vt 0.09375 0.671875
vt 0.09375 0.625
vt 0.0625 0.625
vt 0.328125 0.59375
vt 0.34375 0.59375
vt 0.34375 0.546875
vt 0.328125 0.546875
vt 0.453125 0.734375
vt 0.421875 0.734375
vt 0.421875 0.75
vt 0.453125 0.75
vt 0.421875 0.5625
vt 0.390625 0.5625
vt 0.390625 0.546875
vt 0.421875 0.546875
vn 0 0.7071067811865476 -0.7071067811865475
vn 1 0 0
vn 0 -0.7071067811865476 0.7071067811865475
vn -1 0 0
vn 0 0.7071067811865475 0.7071067811865476
vn 0 -0.7071067811865475 -0.7071067811865476
usemtl m_0
f 12/28/7 15/27/7 13/26/7 10/25/7
f 11/32/8 12/31/8 10/30/8 9/29/8
f 16/36/9 11/35/9 9/34/9 14/33/9
f 15/40/10 16/39/10 14/38/10 13/37/10
f 14/44/11 9/43/11 10/42/11 13/41/11
f 15/48/12 12/47/12 11/46/12 16/45/12
o cube
v 0.1 0.7915133476483185 -0.01294417382415923
v 0.1 0.7473191738241592 -0.05713834764831845
v 0.1 0.6589308261758408 0.11963834764831845
v 0.1 0.6147366523516815 0.07544417382415923
v -0.03125 0.7473191738241592 -0.05713834764831845
v -0.03125 0.7915133476483185 -0.01294417382415923
v -0.03125 0.6147366523516815 0.07544417382415923
v -0.03125 0.6589308261758408 0.11963834764831845
vt 0.34375 1
vt 0.375 1
vt 0.375 0.953125
vt 0.34375 0.953125
vt 0.40625 0.671875
vt 0.421875 0.671875
vt 0.421875 0.625
vt 0.40625 0.625
vt 0.25 0.65625
vt 0.28125 0.65625
vt 0.28125 0.609375
vt 0.25 0.609375
vt 0.359375 0.59375
vt 0.375 0.59375
vt 0.375 0.546875
vt 0.359375 0.546875
vt 0.46875 0.546875
vt 0.4375 0.546875
vt 0.4375 0.5625
vt 0.46875 0.5625
vt 0.484375 0.90625
vt 0.453125 0.90625
vt 0.453125 0.890625
vt 0.484375 0.890625
vn 0 -0.7071067811865476 -0.7071067811865475
vn 1 0 0
vn 0 0.7071067811865476 0.7071067811865475
vn -1 0 0
vn 0 0.7071067811865475 -0.7071067811865476
vn 0 -0.7071067811865475 0.7071067811865476
usemtl m_0
f 20/52/13 23/51/13 21/50/13 18/49/13
f 19/56/14 20/55/14 18/54/14 17/53/14
f 24/60/15 19/59/15 17/58/15 22/57/15
f 23/64/16 24/63/16 22/62/16 21/61/16
f 22/68/17 17/67/17 18/66/17 21/65/17
f 23/72/18 20/71/18 19/70/18 24/69/18
o cube
v 0.0625 0.734375 0.109375
v 0.0625 0.734375 -0.078125
v 0.0625 0.671875 0.109375
v 0.0625 0.671875 -0.078125
v 0 0.734375 -0.078125
v 0 0.734375 0.109375
v 0 0.671875 -0.078125
v 0 0.671875 0.109375
vt 0.46875 0.96875
vt 0.484375 0.96875
vt 0.484375 0.953125
vt 0.46875 0.953125
vt 0.390625 0.59375
vt 0.4375 0.59375
vt 0.4375 0.578125
vt 0.390625 0.578125
vt 0.0625 0.53125
vt 0.078125 0.53125
vt 0.078125 0.515625
vt 0.0625 0.515625
vt 0.421875 1
vt 0.46875 1
vt 0.46875 0.984375
vt 0.421875 0.984375
vt 0.109375 0.53125
vt 0.09375 0.53125
vt 0.09375 0.578125
vt 0.109375 0.578125
vt 0.4375 0.90625
vt 0.421875 0.90625
vt 0.421875 0.859375
vt 0.4375 0.859375
vn 0 0 -1
vn 1 0 0
vn 0 0 1
vn -1 0 0
vn 0 1 0
vn 0 -1 0
usemtl m_0
f 28/76/19 31/75/19 29/74/19 26/73/19
f 27/80/20 28/79/20 26/78/20 25/77/20
f 32/84/21 27/83/21 25/82/21 30/81/21
f 31/88/22 32/87/22 30/86/22 29/85/22
f 30/92/23 25/91/23 26/90/23 29/89/23
f 31/96/24 28/95/24 27/94/24 32/93/24
o cube
v 0.1875 0.859375 -0.140625
v 0.1875 0.859375 -0.328125
v 0.1875 0.546875 -0.140625
v 0.1875 0.546875 -0.328125
v -0.125 0.859375 -0.328125
v -0.125 0.859375 -0.140625
v -0.125 0.546875 -0.328125
v -0.125 0.546875 -0.140625
vt 0 0.84375
vt 0.078125 0.84375
vt 0.078125 0.765625
vt 0 0.765625
vt 0.25 0.8125
vt 0.296875 0.8125
vt 0.296875 0.734375
vt 0.25 0.734375
vt 0.09375 0.84375
vt 0.171875 0.84375
vt 0.171875 0.765625
vt 0.09375 0.765625
vt 0.28125 1
vt 0.328125 1
vt 0.328125 0.921875
vt 0.28125 0.921875
vt 0.359375 0.859375
vt 0.28125 0.859375
vt 0.28125 0.90625
vt 0.359375 0.90625
vt 0.328125 0.71875
vt 0.25 0.71875
vt 0.25 0.671875
vt 0.328125 0.671875
vn 0 0 -1
vn 1 0 0
vn 0 0 1
vn -1 0 0
vn 0 1 0
vn 0 -1 0
usemtl m_0
f 36/100/25 39/99/25 37/98/25 34/97/25
f 35/104/26 36/103/26 34/102/26 33/101/26
f 40/108/27 35/107/27 33/106/27 38/105/27
f 39/112/28 40/111/28 38/110/28 37/109/28
f 38/116/29 33/115/29 34/114/29 37/113/29
f 39/120/30 36/119/30 35/118/30 40/117/30
o cube
v 0.15625 0.828125 -0.328125
v 0.13124999999999998 0.803125 -0.36250000000000004
v 0.15625 0.578125 -0.328125
v 0.13124999999999998 0.603125 -0.36250000000000004
v -0.09375 0.828125 -0.328125
v -0.06874999999999999 0.803125 -0.36250000000000004
v -0.09375 0.578125 -0.328125
v -0.06874999999999999 0.603125 -0.36250000000000004
vt 0.078125 0.553125
vt 0.078125 0.603125
vt 0.0625 0.609375
vt 0.0625 0.546875
vt 0.15625 0.53125
vt 0.15625 0.59375
vt 0.140625 0.5875
vt 0.140625 0.5375
vt 0.375 0.703125
vt 0.38125 0.6875
vt 0.43125 0.6875
vt 0.4375 0.703125
vt 0.334375 0.625
vt 0.328125 0.609375
vt 0.390625 0.609375
vt 0.384375 0.625
vt 0.125 0.6875
vt 0.125 0.75
vt 0.0625 0.75
vt 0.0625 0.6875
vt 0.359375 0.796875
vt 0.359375 0.84375
vt 0.3125 0.84375
vt 0.3125 0.796875
vn 0.8087360843031887 0 -0.5881716976750461
vn -0.8087360843031888 0 -0.5881716976750458
vn 0 0.8087360843031888 -0.588171697675046
vn 0 -0.8087360843031887 -0.5881716976750461
vn 0 0 1
vn 0 0 -1
usemtl m_0
f 44/121/31 42/122/31 41/123/31 43/124/31
f 47/125/32 45/126/32 46/127/32 48/128/32
f 41/129/33 42/130/33 46/131/33 45/132/33
f 44/133/34 43/134/34 47/135/34 48/136/34
f 43/137/35 41/138/35 45/139/35 47/140/35
f 48/141/36 46/142/36 42/143/36 44/144/36
o cube
v 0.171875 0.84375 -0.078125
v 0.171875 0.84375 -0.140625
v 0.171875 0.5625 -0.078125
v 0.171875 0.5625 -0.140625
v -0.109375 0.84375 -0.140625
v -0.109375 0.84375 -0.078125
v -0.109375 0.5625 -0.140625
v -0.109375 0.5625 -0.078125
vt 0.1875 1
vt 0.265625 1
vt 0.265625 0.921875
vt 0.1875 0.921875
vt 0.109375 0.671875
vt 0.125 0.671875
vt 0.125 0.59375
vt 0.109375 0.59375
vt 0.1875 0.90625
vt 0.265625 0.90625
vt 0.265625 0.828125
vt 0.1875 0.828125
vt 0.34375 0.71875
vt 0.359375 0.71875
vt 0.359375 0.640625
vt 0.34375 0.640625
vt 0.421875 0.921875
vt 0.34375 0.921875
vt 0.34375 0.9375
vt 0.421875 0.9375
vt 0.4375 0.78125
vt 0.359375 0.78125
vt 0.359375 0.765625
vt 0.4375 0.765625
vn 0 0 -1
vn 1 0 0
vn 0 0 1
vn -1 0 0
vn 0 1 0
vn 0 -1 0
usemtl m_0
f 52/148/37 55/147/37 53/146/37 50/145/37
f 51/152/38 52/151/38 50/150/38 49/149/38
f 56/156/39 51/155/39 49/154/39 54/153/39
f 55/160/40 56/159/40 54/158/40 53/157/40
f 54/164/41 49/163/41 50/162/41 53/161/41
f 55/168/42 52/167/42 51/166/42 56/165/42
o cube
v 0.078125 0.5625 0.078125
v 0.078125 0.5625 -0.015625
v 0.078125 0.53125 0.078125
v 0.078125 0.53125 -0.015625
v -0.015625 0.5625 -0.015625
v -0.015625 0.5625 0.078125
v -0.015625 0.53125 -0.015625
v -0.015625 0.53125 0.078125
vt 0.453125 0.875
vt 0.484375 0.875
vt 0.484375 0.859375
vt 0.453125 0.859375
vt 0.453125 0.84375
vt 0.484375 0.84375
vt 0.484375 0.828125
vt 0.453125 0.828125
vt 0.453125 0.8125
vt 0.484375 0.8125
vt 0.484375 0.796875
vt 0.453125 0.796875
vt 0.453125 0.78125
vt 0.484375 0.78125
vt 0.484375 0.765625
vt 0.453125 0.765625
vt 0.40625 0.796875
vt 0.375 0.796875
vt 0.375 0.828125
vt 0.40625 0.828125
vt 0.40625 0.75
vt 0.375 0.75
vt 0.375 0.71875
vt 0.40625 0.71875
vn 0 0 -1
vn 1 0 0
vn 0 0 1
vn -1 0 0
vn 0 1 0
vn 0 -1 0
usemtl m_0
f 60/172/43 63/171/43 61/170/43 58/169/43
f 59/176/44 60/175/44 58/174/44 57/173/44
f 64/180/45 59/179/45 57/178/45 62/177/45
f 63/184/46 64/183/46 62/182/46 61/181/46
f 62/188/47 57/187/47 58/186/47 61/185/47
f 63/192/48 60/191/48 59/190/48 64/189/48
o cube
v 0.06875 0.984375 0.3583333333333335
v 0.056249999999999994 0.84375 0.18124999999999994
v 0.06875 0.421875 0.3583333333333335
v 0.056249999999999994 0.5625 0.18124999999999994
v -0.006249999999999999 0.984375 0.3583333333333335
v 0.0062500000000000056 0.84375 0.18124999999999994
v -0.006249999999999999 0.421875 0.3583333333333335
v 0.0062500000000000056 0.5625 0.18124999999999994
v 0.034374999999999996 0.984375 0.4468750000000002
v 0.034374999999999996 0.421875 0.4468750000000002
v 0.028125000000000004 0.984375 0.4468750000000002
v 0.028125000000000004 0.421875 0.4468750000000002
vt 0.161875 0.89453125
vt 0.161875 0.96484375
vt 0.11749375 1
vt 0.11749375 0.859375
vt 0.0543796875 0.859375
vt 0.0543796875 1
vt 0.010000000000000009 0.96484375
vt 0.010000000000000009 0.89453125
vt 0.38752858092291964 0.90625
vt 0.38752858092291964 0.8496308820789289
vt 0.40000952697430653 0.8489409649372586
vt 0.40625 0.9052151242874945
vt 0.2562404725002466 0.5885574939554781
vt 0.25 0.5322849042288966
vt 0.265625 0.53125
vt 0.265625 0.5878675578028804
vt 0.15625 0.609375
vt 0.15625 0.75
vt 0.140625 0.75
vt 0.140625 0.609375
vt 0.3125 0.578125
vt 0.3125 0.65625
vt 0.296875 0.65625
vt 0.296875 0.578125
vt 0.09375 1
vt 0.09375 0.859375
vt 0.11749375 0.859375
vt 0.11749375 1
vt 0.453125 0.6950044263479189
vt 0.45458158314473773 0.6944389426678133
vt 0.47060399773685296 0.7119641958387315
vt 0.453125 0.71875
vt 0.078125 0.859375
vt 0.078125 1
vt 0.0543796875 1
vt 0.0543796875 0.859375
vt 0.453125 0.609375
vt 0.453125 0.5856294263479189
vt 0.45458158314473773 0.5850639426678133
vt 0.47060399773685296 0.6025891958387315
vn 0.9975179222617702 0 -0.07041302980671316
vn -0.9975179222617702 0 -0.07041302980671313
vn 0 0.7831108474982943 -0.6218821436015858
vn 0 -0.7831108474982942 -0.6218821436015858
vn 0 0 1
vn 0 0 -1
vn 0.9322103396725175 0 0.3619169554022715
vn 0 1 0
vn -0.9322103396725174 0 0.36191695540227137
vn 0 1 0
usemtl m_0
f 68/193/49 66/194/49 65/195/49 67/196/49
f 71/197/50 69/198/50 70/199/50 72/200/50
f 65/201/51 66/202/51 70/203/51 69/204/51
f 68/205/52 67/206/52 71/207/52 72/208/52
f 74/209/53 73/210/53 75/211/53 76/212/53
f 72/213/54 70/214/54 66/215/54 68/216/54
f 73/217/55 74/218/55 67/219/55 65/220/55
f 75/221/56 73/222/56 65/223/56 69/224/56
f 76/225/57 75/226/57 69/227/57 71/228/57
f 71/229/58 76/230/58 74/231/58 67/232/58
o cube
v 0.0625 0.796875 0.184375
v 0.0625 0.796875 0.109375
v 0.0625 0.609375 0.184375
v 0.0625 0.609375 0.109375
v 0 0.796875 0.109375
v 0 0.796875 0.184375
v 0 0.609375 0.109375
v 0 0.609375 0.184375
vt 0.421875 0.84375
vt 0.4375 0.84375
vt 0.4375 0.796875
vt 0.421875 0.796875
vt 0.4375 0.96875
vt 0.453125 0.96875
vt 0.453125 0.921875
vt 0.4375 0.921875
vt 0.28125 0.5625
vt 0.296875 0.5625
vt 0.296875 0.515625
vt 0.28125 0.515625
vt 0.4375 0.671875
vt 0.453125 0.671875
vt 0.453125 0.625
vt 0.4375 0.625
vt 0.484375 0.921875
vt 0.46875 0.921875
vt 0.46875 0.9375
vt 0.484375 0.9375
vt 0.484375 0.75
vt 0.46875 0.75
vt 0.46875 0.734375
vt 0.484375 0.734375
vn 0 0 -1
vn 1 0 0
vn 0 0 1
vn -1 0 0
vn 0 1 0
vn 0 -1 0
usemtl m_0
f 80/236/59 83/235/59 81/234/59 78/233/59
f 79/240/60 80/239/60 78/238/60 77/237/60
f 84/244/61 79/243/61 77/242/61 82/241/61
f 83/248/62 84/247/62 82/246/62 81/245/62
f 82/252/63 77/251/63 78/250/63 81/249/63
f 83/256/64 80/255/64 79/254/64 84/253/64
o cube
v 0.078125 0.515625 0.078125
v 0.078125 0.515625 -0.015625
v 0.078125 0.484375 0.078125
v 0.078125 0.484375 -0.015625
v -0.015625 0.515625 -0.015625
v -0.015625 0.515625 0.078125
v -0.015625 0.484375 -0.015625
v -0.015625 0.484375 0.078125
vt 0.453125 0.875
vt 0.484375 0.875
vt 0.484375 0.859375
vt 0.453125 0.859375
vt 0.453125 0.84375
vt 0.484375 0.84375
vt 0.484375 0.828125
vt 0.453125 0.828125
vt 0.453125 0.8125
vt 0.484375 0.8125
vt 0.484375 0.796875
vt 0.453125 0.796875
vt 0.453125 0.78125
vt 0.484375 0.78125
vt 0.484375 0.765625
vt 0.453125 0.765625
vt 0.40625 0.796875
vt 0.375 0.796875
vt 0.375 0.828125
vt 0.40625 0.828125
vt 0.40625 0.75
vt 0.375 0.75
vt 0.375 0.71875
vt 0.40625 0.71875
vn 0 0 -1
vn 1 0 0
vn 0 0 1
vn -1 0 0
vn 0 1 0
vn 0 -1 0
usemtl m_0
f 88/260/65 91/259/65 89/258/65 86/257/65
f 87/264/66 88/263/66 86/262/66 85/261/66
f 92/268/67 87/267/67 85/266/67 90/265/67
f 91/272/68 92/271/68 90/270/68 89/269/68
f 90/276/69 85/275/69 86/274/69 89/273/69
f 91/280/70 88/279/70 87/278/70 92/277/70
o cube
v 0.078125 0.46875 0.078125
v 0.078125 0.46875 -0.015625
v 0.078125 0.4375 0.078125
v 0.078125 0.4375 -0.015625
v -0.015625 0.46875 -0.015625
v -0.015625 0.46875 0.078125
v -0.015625 0.4375 -0.015625
v -0.015625 0.4375 0.078125
vt 0.453125 0.875
vt 0.484375 0.875
vt 0.484375 0.859375
vt 0.453125 0.859375
vt 0.453125 0.84375
vt 0.484375 0.84375
vt 0.484375 0.828125
vt 0.453125 0.828125
vt 0.453125 0.8125
vt 0.484375 0.8125
vt 0.484375 0.796875
vt 0.453125 0.796875
vt 0.453125 0.78125
vt 0.484375 0.78125
vt 0.484375 0.765625
vt 0.453125 0.765625
vt 0.40625 0.796875
vt 0.375 0.796875
vt 0.375 0.828125
vt 0.40625 0.828125
vt 0.40625 0.75
vt 0.375 0.75
vt 0.375 0.71875
vt 0.40625 0.71875
vn 0 0 -1
vn 1 0 0
vn 0 0 1
vn -1 0 0
vn 0 1 0
vn 0 -1 0
usemtl m_0
f 96/284/71 99/283/71 97/282/71 94/281/71
f 95/288/72 96/287/72 94/286/72 93/285/72
f 100/292/73 95/291/73 93/290/73 98/289/73
f 99/296/74 100/295/74 98/294/74 97/293/74
f 98/300/75 93/299/75 94/298/75 97/297/75
f 99/304/76 96/303/76 95/302/76 100/301/76
o cube
v 0.078125 0.421875 0.078125
v 0.078125 0.421875 -0.015625
v 0.078125 0.390625 0.078125
v 0.078125 0.390625 -0.015625
v -0.015625 0.421875 -0.015625
v -0.015625 0.421875 0.078125
v -0.015625 0.390625 -0.015625
v -0.015625 0.390625 0.078125
vt 0.453125 0.875
vt 0.484375 0.875
vt 0.484375 0.859375
vt 0.453125 0.859375
vt 0.453125 0.84375
vt 0.484375 0.84375
vt 0.484375 0.828125
vt 0.453125 0.828125
vt 0.453125 0.8125
vt 0.484375 0.8125
vt 0.484375 0.796875
vt 0.453125 0.796875
vt 0.453125 0.78125
vt 0.484375 0.78125
vt 0.484375 0.765625
vt 0.453125 0.765625
vt 0.40625 0.796875
vt 0.375 0.796875
vt 0.375 0.828125
vt 0.40625 0.828125
vt 0.40625 0.75
vt 0.375 0.75
vt 0.375 0.71875
vt 0.40625 0.71875
vn 0 0 -1
vn 1 0 0
vn 0 0 1
vn -1 0 0
vn 0 1 0
vn 0 -1 0
usemtl m_0
f 104/308/77 107/307/77 105/306/77 102/305/77
f 103/312/78 104/311/78 102/310/78 101/309/78
f 108/316/79 103/315/79 101/314/79 106/313/79
f 107/320/80 108/319/80 106/318/80 105/317/80
f 106/324/81 101/323/81 102/322/81 105/321/81
f 107/328/82 104/327/82 103/326/82 108/325/82