g _Combined Mesh [Example Combine (Select then click Combine button)]
v 2.325352 1.388185 0.1111717
v 2.325352 6.691816 0.1111717
v 2.51465 6.691816 0.1111679
v 2.51465 1.388185 0.1111679
v 2.325352 6.691816 0.1111717
v 2.32535 6.691816 -0.1072502
v 2.514648 6.691816 -0.1072502
v 2.51465 6.691816 0.1111679
v 2.32535 6.691816 -0.1072502
v 2.32535 1.388185 -0.1072502
v 2.514648 1.388185 -0.1072502
v 2.514648 6.691816 -0.1072502
v 2.32535 1.388185 -0.1072502
v 2.325352 1.388185 0.1111717
v 2.51465 1.388185 0.1111679
v 2.514648 1.388185 -0.1072502
v 2.51465 1.388185 0.1111679
v 2.51465 6.691816 0.1111679
v 2.514648 6.691816 -0.1072502
v 2.514648 1.388185 -0.1072502
v 2.32535 1.388185 -0.1072502
v 2.32535 6.691816 -0.1072502
v 2.325352 6.691816 0.1111717
v 2.325352 1.388185 0.1111717
v -2.489647 1.388185 0.1111717
v -2.489647 6.691816 0.1111717
v -2.300348 6.691816 0.1111679
v -2.300348 1.388185 0.1111679
v -2.489647 6.691816 0.1111717
v -2.489649 6.691816 -0.107254
v -2.300348 6.691816 -0.1072502
v -2.300348 6.691816 0.1111679
v -2.489649 6.691816 -0.107254
v -2.489649 1.388185 -0.107254
v -2.300348 1.388185 -0.1072502
v -2.300348 6.691816 -0.1072502
v -2.489649 1.388185 -0.107254
v -2.489647 1.388185 0.1111717
v -2.300348 1.388185 0.1111679
v -2.300348 1.388185 -0.1072502
v -2.300348 1.388185 0.1111679
v -2.300348 6.691816 0.1111679
v -2.300348 6.691816 -0.1072502
v -2.300348 1.388185 -0.1072502
v -2.489649 1.388185 -0.107254
v -2.489649 6.691816 -0.107254
v -2.489647 6.691816 0.1111717
v -2.489647 1.388185 0.1111717

vn 0 0 1
vn 0 0 1
vn 0 0 1
vn 0 0 1
vn 0 0.9999999 0
vn 0 0.9999999 0
vn 0 0.9999999 0
vn 0 0.9999999 0
vn 0 0 -1
vn 0 0 -1
vn 0 0 -1
vn 0 0 -1
vn 0 -0.9999999 0
vn 0 -0.9999999 0
vn 0 -0.9999999 0
vn 0 -0.9999999 0
vn 1 0 0
vn 1 0 0
vn 1 0 0
vn 1 0 0
vn -1 0 0
vn -1 0 0
vn -1 0 0
vn -1 0 0
vn 0 0 1
vn 0 0 1
vn 0 0 1
vn 0 0 1
vn 0 0.9999999 0
vn 0 0.9999999 0
vn 0 0.9999999 0
vn 0 0.9999999 0
vn 0 0 -1
vn 0 0 -1
vn 0 0 -1
vn 0 0 -1
vn 0 -0.9999999 0
vn 0 -0.9999999 0
vn 0 -0.9999999 0
vn 0 -0.9999999 0
vn 1 0 0
vn 1 0 0
vn 1 0 0
vn 1 0 0
vn -1 0 0
vn -1 0 0
vn -1 0 0
vn -1 0 0

vt 0.2492777 0.9964595
vt 0.2492777 0.997272
vt 0.2500903 0.997272
vt 0.2500903 0.9964595
vt 0.2492777 0.997272
vt 0.2492777 0.9980847
vt 0.2500903 0.9980847
vt 0.2500903 0.997272
vt 0.2492777 0.9980847
vt 0.2492777 0.9988973
vt 0.2500903 0.9988973
vt 0.2500903 0.9980847
vt 0.2492777 0.9988973
vt 0.2492777 0.9997098
vt 0.2500903 0.9997098
vt 0.2500903 0.9988973
vt 0.2500903 0.9964595
vt 0.2500903 0.997272
vt 0.250903 0.997272
vt 0.250903 0.9964595
vt 0.2484651 0.9964595
vt 0.2484651 0.997272
vt 0.2492777 0.997272
vt 0.2492777 0.9964595
vt 0.2496946 0.9970271
vt 0.2496946 0.9974743
vt 0.2501419 0.9974743
vt 0.2501419 0.9970271
vt 0.2496946 0.9974743
vt 0.2496946 0.9979216
vt 0.2501419 0.9979216
vt 0.2501419 0.9974743
vt 0.2496946 0.9979216
vt 0.2496946 0.9983689
vt 0.2501419 0.9983689
vt 0.2501419 0.9979216
vt 0.2496946 0.9983689
vt 0.2496946 0.9988162
vt 0.2501419 0.9988162
vt 0.2501419 0.9983689
vt 0.2501419 0.9970271
vt 0.2501419 0.9974743
vt 0.2505892 0.9974743
vt 0.2505892 0.9970271
vt 0.2492473 0.9970271
vt 0.2492473 0.9974743
vt 0.2496946 0.9974743
vt 0.2496946 0.9970271

f 2/2/2 1/1/1 3/3/3
f 3/3/3 1/1/1 4/4/4
f 6/6/6 5/5/5 7/7/7
f 7/7/7 5/5/5 8/8/8
f 10/10/10 9/9/9 11/11/11
f 11/11/11 9/9/9 12/12/12
f 14/14/14 13/13/13 15/15/15
f 15/15/15 13/13/13 16/16/16
f 18/18/18 17/17/17 19/19/19
f 19/19/19 17/17/17 20/20/20
f 22/22/22 21/21/21 23/23/23
f 23/23/23 21/21/21 24/24/24
f 26/26/26 25/25/25 27/27/27
f 27/27/27 25/25/25 28/28/28
f 30/30/30 29/29/29 31/31/31
f 31/31/31 29/29/29 32/32/32
f 34/34/34 33/33/33 35/35/35
f 35/35/35 33/33/33 36/36/36
f 38/38/38 37/37/37 39/39/39
f 39/39/39 37/37/37 40/40/40
f 42/42/42 41/41/41 43/43/43
f 43/43/43 41/41/41 44/44/44
f 46/46/46 45/45/45 47/47/47
f 47/47/47 45/45/45 48/48/48
