# Made in Blockbench 4.2.5
mtllib SpecialWeapon_Meat.mtl

o cube
v 0.0625 0.0625 0.1875
v 0.0625 0.0625 0.09375
v 0.0625 0 0.1875
v 0.0625 0 0.09375
v 0 0.0625 0.09375
v 0 0.0625 0.1875
v 0 0 0.09375
v 0 0 0.1875
vt 0.4375 0.8125
vt 0.53125 0.8125
vt 0.53125 0.71875
vt 0.4375 0.71875
vt 0.4375 0.6875
vt 0.53125 0.6875
vt 0.53125 0.59375
vt 0.4375 0.59375
vt 0.4375 0.5625
vt 0.53125 0.5625
vt 0.53125 0.46875
vt 0.4375 0.46875
vt 0.1875 0.5
vt 0.28125 0.5
vt 0.28125 0.40625
vt 0.1875 0.40625
vt 0.40625 0.40625
vt 0.3125 0.40625
vt 0.3125 0.5
vt 0.40625 0.5
vt 0.09375 0.4375
vt 0 0.4375
vt 0 0.34375
vt 0.09375 0.34375
vn 0 0 -1
vn 1 0 0
vn 0 0 1
vn -1 0 0
vn 0 1 0
vn 0 -1 0
usemtl m_0
f 4/4/1 7/3/1 5/2/1 2/1/1
f 3/8/2 4/7/2 2/6/2 1/5/2
f 8/12/3 3/11/3 1/10/3 6/9/3
f 7/16/4 8/15/4 6/14/4 5/13/4
f 6/20/5 1/19/5 2/18/5 5/17/5
f 7/24/6 4/23/6 3/22/6 8/21/6
o cube
v 0.049999999999999996 -0.030399756441743288 0.25562184335382276
v 0.049999999999999996 0.057988591206575124 0.16723349570550436
v 0.049999999999999996 -0.05249684335382289 0.23352475644174314
v 0.049999999999999996 0.03589150429449552 0.14513640879342474
v 0.012500000000000004 0.057988591206575124 0.16723349570550436
v 0.012500000000000004 -0.030399756441743288 0.25562184335382276
v 0.012500000000000004 0.03589150429449552 0.14513640879342474
v 0.012500000000000004 -0.05249684335382289 0.23352475644174314
vt 0.625 0.875
vt 0.6875 0.875
vt 0.6875 0.84375
vt 0.625 0.84375
vt 0.625 1
vt 0.71875 1
vt 0.71875 0.96875
vt 0.625 0.96875
vt 0.1875 0.375
vt 0.25 0.375
vt 0.25 0.34375
vt 0.1875 0.34375
vt 0.625 0.9375
vt 0.71875 0.9375
vt 0.71875 0.90625
vt 0.625 0.90625
vt 0.625 0.59375
vt 0.5625 0.59375
vt 0.5625 0.6875
vt 0.625 0.6875
vt 0.5 0.4375
vt 0.4375 0.4375
vt 0.4375 0.34375
vt 0.5 0.34375
vn 0 0.7071067811865476 -0.7071067811865475
vn 1 0 0
vn 0 -0.7071067811865476 0.7071067811865475
vn -1 0 0
vn 0 0.7071067811865475 0.7071067811865476
vn 0 -0.7071067811865475 -0.7071067811865476
usemtl m_0
f 12/28/7 15/27/7 13/26/7 10/25/7
f 11/32/8 12/31/8 10/30/8 9/29/8
f 16/36/9 11/35/9 9/34/9 14/33/9
f 15/40/10 16/39/10 14/38/10 13/37/10
f 14/44/11 9/43/11 10/42/11 13/41/11
f 15/48/12 12/47/12 11/46/12 16/45/12
o cube
v 0.049999999999999996 0.10218276503073434 0.22026650429449537
v 0.049999999999999996 0.049149756441743304 0.16723349570550436
v 0.049999999999999996 0.08008567811865475 0.242363591206575
v 0.049999999999999996 0.0270526695296637 0.18933058261758395
v 0.012500000000000004 0.049149756441743304 0.16723349570550436
v 0.012500000000000004 0.10218276503073434 0.22026650429449537
v 0.012500000000000004 0.0270526695296637 0.18933058261758395
v 0.012500000000000004 0.08008567811865475 0.242363591206575
vt 0.25 0.375
vt 0.3125 0.375
vt 0.3125 0.34375
vt 0.25 0.34375
vt 0.3125 0.375
vt 0.375 0.375
vt 0.375 0.34375
vt 0.3125 0.34375
vt 0.625 0.6875
vt 0.6875 0.6875
vt 0.6875 0.65625
vt 0.625 0.65625
vt 0.375 0.375
vt 0.4375 0.375
vt 0.4375 0.34375
vt 0.375 0.34375
vt 0.625 0.4375
vt 0.5625 0.4375
vt 0.5625 0.5
vt 0.625 0.5
vt 0.625 0.4375
vt 0.5625 0.4375
vt 0.5625 0.375
vt 0.625 0.375
vn 0 -0.7071067811865476 -0.7071067811865475
vn 1 0 0
vn 0 0.7071067811865476 0.7071067811865475
vn -1 0 0
vn 0 0.7071067811865475 -0.7071067811865476
vn 0 -0.7071067811865475 0.7071067811865476
usemtl m_0
f 20/52/13 23/51/13 21/50/13 18/49/13
f 19/56/14 20/55/14 18/54/14 17/53/14
f 24/60/15 19/59/15 17/58/15 22/57/15
f 23/64/16 24/63/16 22/62/16 21/61/16
f 22/68/17 17/67/17 18/66/17 21/65/17
f 23/72/18 20/71/18 19/70/18 24/69/18
o cube
v 0.046875 0.046875 -0.15625
v 0.046875 0.046875 -0.16875
v 0.046875 0.015625 -0.15625
v 0.046875 0.015625 -0.16875
v 0.015625 0.046875 -0.16875
v 0.015625 0.046875 -0.15625
v 0.015625 0.015625 -0.16875
v 0.015625 0.015625 -0.15625
vt 0.5625 0.5625
vt 0.625 0.5625
vt 0.625 0.5
vt 0.5625 0.5
vt 0.5625 0.8125
vt 0.65625 0.8125
vt 0.65625 0.75
vt 0.5625 0.75
vt 0.5 0.4375
vt 0.5625 0.4375
vt 0.5625 0.375
vt 0.5 0.375
vt 0.5625 0.75
vt 0.65625 0.75
vt 0.65625 0.6875
vt 0.5625 0.6875
vt 0.25 0.53125
vt 0.1875 0.53125
vt 0.1875 0.625
vt 0.25 0.625
vt 0.1875 0.4375
vt 0.125 0.4375
vt 0.125 0.34375
vt 0.1875 0.34375
vn 0 0 -1
vn 1 0 0
vn 0 0 1
vn -1 0 0
vn 0 1 0
vn 0 -1 0
usemtl m_0
f 28/76/19 31/75/19 29/74/19 26/73/19
f 27/80/20 28/79/20 26/78/20 25/77/20
f 32/84/21 27/83/21 25/82/21 30/81/21
f 31/88/22 32/87/22 30/86/22 29/85/22
f 30/92/23 25/91/23 26/90/23 29/89/23
f 31/96/24 28/95/24 27/94/24 32/93/24
o cube
v 0.07812499999999999 0.07812499999999997 0.09375
v 0.103125 0.103125 -0.15625
v 0.07812499999999999 -0.015625000000000007 0.09375
v 0.103125 -0.040624999999999994 -0.15625
v -0.015625000000000003 0.07812499999999997 0.09375
v -0.040624999999999994 0.103125 -0.15625
v -0.015625000000000003 -0.015625000000000007 0.09375
v -0.040624999999999994 -0.040624999999999994 -0.15625
v 0.10625 0.10625 -0.03125
v 0.10625 -0.04375 -0.03125
v -0.04375 -0.04375 -0.03125
v -0.04375 0.10625 -0.03125
vt 0 0.84375
vt 0.125 0.84375
vt 0.125 1
vt 0 1
vt 0.25 0.8125
vt 0.125 0.8125
vt 0.125 0.65625
vt 0.25 0.65625
vt 0.25 1
vt 0.25 0.875
vt 0.40625 0.875
vt 0.40625 1
vt 0.40625 0.75
vt 0.40625 0.625
vt 0.25 0.625
vt 0.25 0.75
vt 0.59375 0.84375
vt 0.59375 1
vt 0.4375 1
vt 0.4375 0.84375
vt 0.15625 0.46875
vt 0.15625 0.625
vt 0 0.625
vt 0 0.46875
vt 0.25 1
vt 0.125 1
vt 0.125 0.84375
vt 0.25 0.84375
vt 0.25 0.5
vt 0.25 0.625
vt 0.40625 0.625
vt 0.40625 0.5
vt 0 0.65625
vt 0.125 0.65625
vt 0.125 0.8125
vt 0 0.8125
vt 0.40625 0.75
vt 0.40625 0.875
vt 0.25 0.875
vt 0.25 0.75
vn 0.975609756097561 0 0.21951219512195133
vn -0.9756097560975612 0 0.2195121951219512
vn 0 0.975609756097561 0.21951219512195141
vn 0 -0.9756097560975612 0.2195121951219512
vn 0 0 1
vn 0 0 -1
vn 0.9996876464081228 0 -0.024992191160203094
vn 0 -0.9996876464081228 -0.024992191160203094
vn -0.9996876464081228 0 -0.024992191160203094
vn 0 0.9996876464081228 -0.024992191160203094
usemtl m_0
f 35/97/25 42/98/25 41/99/25 33/100/25
f 37/101/26 44/102/26 43/103/26 39/104/26
f 33/105/27 41/106/27 44/107/27 37/108/27
f 39/109/28 43/110/28 42/111/28 35/112/28
f 35/113/29 33/114/29 37/115/29 39/116/29
f 40/117/30 38/118/30 34/119/30 36/120/30
f 34/121/31 41/122/31 42/123/31 36/124/31
f 36/125/32 42/126/32 43/127/32 40/128/32
f 40/129/33 43/130/33 44/131/33 38/132/33
f 38/133/34 44/134/34 41/135/34 34/136/34