# This file uses centimeters as units for non-parametric coordinates.

mtllib Boxing_Gloves.mtl
g default
v 0.876734 3.068571 0.730612
v 0.876734 3.068571 -0.876734
v 0.876734 1.022857 0.730612
v 0.876734 1.022857 -0.876734
v -0.876734 3.068571 -0.876734
v -0.876734 3.068571 0.730612
v -0.876734 1.022857 -0.876734
v -0.876734 1.022857 0.730612
v 0.730612 2.922448 -0.876734
v 0.730612 2.922448 -1.022857
v 0.730612 1.168979 -0.876734
v 0.730612 1.168979 -1.022857
v -0.730612 2.922448 -1.022857
v -0.730612 2.922448 -0.876734
v -0.730612 1.168979 -1.022857
v -0.730612 1.168979 -0.876734
v 0.584490 1.168979 0.584490
v 0.584490 1.168979 -0.584490
v 0.584490 -0.000000 0.584490
v 0.584490 -0.000000 -0.584490
v -0.584490 1.168979 -0.584490
v -0.584490 1.168979 0.584490
v -0.584490 -0.000000 -0.584490
v -0.584490 -0.000000 0.584490
v 0.730612 2.630203 1.315102
v 0.730612 2.630203 0.876734
v 0.730612 2.191836 1.315102
v 0.730612 2.191836 0.876734
v -0.730612 2.630203 0.876734
v -0.730612 2.630203 1.315102
v -0.730612 2.191836 0.876734
v -0.730612 2.191836 1.315102
v 0.876734 3.068571 1.315102
v 0.876734 3.068571 0.876734
v 0.876734 2.630203 1.315102
v 0.876734 2.630203 0.876734
v -0.876734 3.068571 0.876734
v -0.876734 3.068571 1.315102
v -0.876734 2.630203 0.876734
v -0.876734 2.630203 1.315102
v 1.022857 2.191836 0.730612
v 1.022857 2.191836 -0.584490
v 1.022857 1.315102 0.730612
v 1.022857 1.315102 -0.584490
v 0.876734 2.191836 -0.584490
v 0.876734 2.191836 0.730612
v 0.876734 1.315102 -0.584490
v 0.876734 1.315102 0.730612
v 0.876734 3.068571 0.876734
v 0.876734 3.068571 0.730612
v 0.876734 2.776326 0.876734
v 0.876734 2.776326 0.730612
v -0.876734 3.068571 0.730612
v -0.876734 3.068571 0.876734
v -0.876734 2.776326 0.730612
v -0.876734 2.776326 0.876734
v 0.876734 3.214693 0.730612
v 0.876734 3.214693 -0.730612
v 0.876734 3.068571 0.730612
v 0.876734 3.068571 -0.730612
v -0.876734 3.214693 -0.730612
v -0.876734 3.214693 0.730612
v -0.876734 3.068571 -0.730612
v -0.876734 3.068571 0.730612
v 1.315102 2.191836 1.022857
v 1.315102 2.191836 -0.292245
v 1.315102 1.607347 1.022857
v 1.315102 1.607347 -0.292245
v 1.022857 2.191836 -0.292245
v 1.022857 2.191836 1.022857
v 1.022857 1.607347 -0.292245
v 1.022857 1.607347 1.022857
vt 0.000000 0.890625
vt 0.093750 0.890625
vt 0.093750 1.000000
vt 0.000000 1.000000
vt 0.000000 0.765625
vt 0.085938 0.765625
vt 0.085938 0.875000
vt 0.000000 0.875000
vt 0.093750 0.890625
vt 0.187500 0.890625
vt 0.187500 1.000000
vt 0.093750 1.000000
vt 0.093750 0.765625
vt 0.179688 0.765625
vt 0.179688 0.875000
vt 0.093750 0.875000
vt 0.281250 1.000000
vt 0.187500 1.000000
vt 0.187500 0.914063
vt 0.281250 0.914063
vt 0.281250 0.820313
vt 0.187500 0.820313
vt 0.187500 0.906250
vt 0.281250 0.906250
vt 0.187500 0.718750
vt 0.265625 0.718750
vt 0.265625 0.812500
vt 0.187500 0.812500
vt 0.062500 0.500000
vt 0.070313 0.500000
vt 0.070313 0.593750
vt 0.062500 0.593750
vt 0.000000 0.656250
vt 0.078125 0.656250
vt 0.078125 0.750000
vt 0.000000 0.750000
vt 0.093750 0.500000
vt 0.101563 0.500000
vt 0.101563 0.593750
vt 0.093750 0.593750
vt 0.484375 0.593750
vt 0.406250 0.593750
vt 0.406250 0.585938
vt 0.484375 0.585938
vt 0.515625 0.992188
vt 0.437500 0.992188
vt 0.437500 1.000000
vt 0.515625 1.000000
vt 0.281250 0.843750
vt 0.343750 0.843750
vt 0.343750 0.906250
vt 0.281250 0.906250
vt 0.281250 0.781250
vt 0.343750 0.781250
vt 0.343750 0.843750
vt 0.281250 0.843750
vt 0.187500 0.656250
vt 0.250000 0.656250
vt 0.250000 0.718750
vt 0.187500 0.718750
vt 0.281250 0.718750
vt 0.343750 0.718750
vt 0.343750 0.781250
vt 0.281250 0.781250
vt 0.312500 0.718750
vt 0.250000 0.718750
vt 0.250000 0.656250
vt 0.312500 0.656250
vt 0.375000 0.656250
vt 0.312500 0.656250
vt 0.312500 0.718750
vt 0.375000 0.718750
vt 0.343750 0.726563
vt 0.421875 0.726563
vt 0.421875 0.750000
vt 0.343750 0.750000
vt 0.437500 0.820313
vt 0.460938 0.820313
vt 0.460938 0.843750
vt 0.437500 0.843750
vt 0.375000 0.914063
vt 0.453125 0.914063
vt 0.453125 0.937500
vt 0.375000 0.937500
vt 0.437500 0.789063
vt 0.460938 0.789063
vt 0.460938 0.812500
vt 0.437500 0.812500
vt 0.265625 0.625000
vt 0.187500 0.625000
vt 0.187500 0.601563
vt 0.265625 0.601563
vt 0.453125 0.695313
vt 0.375000 0.695313
vt 0.375000 0.718750
vt 0.453125 0.718750
vt 0.343750 0.882813
vt 0.437500 0.882813
vt 0.437500 0.906250
vt 0.343750 0.906250
vt 0.031250 0.539063
vt 0.054688 0.539063
vt 0.054688 0.562500
vt 0.031250 0.562500
vt 0.343750 0.851563
vt 0.437500 0.851563
vt 0.437500 0.875000
vt 0.343750 0.875000
vt 0.437500 0.851563
vt 0.460938 0.851563
vt 0.460938 0.875000
vt 0.437500 0.875000
vt 0.437500 0.843750
vt 0.343750 0.843750
vt 0.343750 0.820313
vt 0.437500 0.820313
vt 0.281250 0.632813
vt 0.187500 0.632813
vt 0.187500 0.656250
vt 0.281250 0.656250
vt 0.250000 0.515625
vt 0.257813 0.515625
vt 0.257813 0.562500
vt 0.250000 0.562500
vt 0.000000 0.609375
vt 0.070313 0.609375
vt 0.070313 0.656250
vt 0.000000 0.656250
vt 0.281250 0.515625
vt 0.289063 0.515625
vt 0.289063 0.562500
vt 0.281250 0.562500
vt 0.093750 0.609375
vt 0.164063 0.609375
vt 0.164063 0.656250
vt 0.093750 0.656250
vt 0.320313 0.593750
vt 0.312500 0.593750
vt 0.312500 0.523438
vt 0.320313 0.523438
vt 0.351563 0.523438
vt 0.343750 0.523438
vt 0.343750 0.593750
vt 0.351563 0.593750
vt 0.375000 0.671875
vt 0.468750 0.671875
vt 0.468750 0.687500
vt 0.375000 0.687500
vt 0.437500 0.734375
vt 0.445313 0.734375
vt 0.445313 0.750000
vt 0.437500 0.750000
vt 0.375000 0.640625
vt 0.468750 0.640625
vt 0.468750 0.656250
vt 0.375000 0.656250
vt 0.406250 0.546875
vt 0.414063 0.546875
vt 0.414063 0.562500
vt 0.406250 0.562500
vt 0.500000 0.968750
vt 0.406250 0.968750
vt 0.406250 0.960938
vt 0.500000 0.960938
vt 0.218750 0.585938
vt 0.125000 0.585938
vt 0.125000 0.593750
vt 0.218750 0.593750
vt 0.218750 0.585938
vt 0.312500 0.585938
vt 0.312500 0.593750
vt 0.218750 0.593750
vt 0.437500 0.898438
vt 0.515625 0.898438
vt 0.515625 0.906250
vt 0.437500 0.906250
vt 0.406250 0.617188
vt 0.500000 0.617188
vt 0.500000 0.625000
vt 0.406250 0.625000
vt 0.125000 0.554688
vt 0.203125 0.554688
vt 0.203125 0.562500
vt 0.125000 0.562500
vt 0.187500 0.750000
vt 0.093750 0.750000
vt 0.093750 0.671875
vt 0.187500 0.671875
vt 0.375000 0.921875
vt 0.281250 0.921875
vt 0.281250 1.000000
vt 0.375000 1.000000
vt 0.218750 0.531250
vt 0.234375 0.531250
vt 0.234375 0.562500
vt 0.218750 0.562500
vt 0.343750 0.781250
vt 0.414063 0.781250
vt 0.414063 0.812500
vt 0.343750 0.812500
vt 0.437500 0.750000
vt 0.453125 0.750000
vt 0.453125 0.781250
vt 0.437500 0.781250
vt 0.343750 0.750000
vt 0.414063 0.750000
vt 0.414063 0.781250
vt 0.343750 0.781250
vt 0.390625 0.625000
vt 0.375000 0.625000
vt 0.375000 0.554688
vt 0.390625 0.554688
vt 0.015625 0.523438
vt 0.000000 0.523438
vt 0.000000 0.593750
vt 0.015625 0.593750
vn 0.000000 0.000000 -1.000000
vn 0.000000 0.000000 -1.000000
vn 0.000000 0.000000 -1.000000
vn 0.000000 0.000000 -1.000000
vn 1.000000 0.000000 0.000000
vn 1.000000 0.000000 0.000000
vn 1.000000 0.000000 0.000000
vn 1.000000 0.000000 0.000000
vn 0.000000 0.000000 1.000000
vn 0.000000 0.000000 1.000000
vn 0.000000 0.000000 1.000000
vn 0.000000 0.000000 1.000000
vn -1.000000 0.000000 0.000000
vn -1.000000 0.000000 0.000000
vn -1.000000 0.000000 0.000000
vn -1.000000 0.000000 0.000000
vn 0.000000 1.000000 0.000000
vn 0.000000 1.000000 0.000000
vn 0.000000 1.000000 0.000000
vn 0.000000 1.000000 0.000000
vn 0.000000 -1.000000 0.000000
vn 0.000000 -1.000000 0.000000
vn 0.000000 -1.000000 0.000000
vn 0.000000 -1.000000 0.000000
vn 0.000000 0.000000 -1.000000
vn 0.000000 0.000000 -1.000000
vn 0.000000 0.000000 -1.000000
vn 0.000000 0.000000 -1.000000
vn 1.000000 0.000000 0.000000
vn 1.000000 0.000000 0.000000
vn 1.000000 0.000000 0.000000
vn 1.000000 0.000000 0.000000
vn 0.000000 0.000000 1.000000
vn 0.000000 0.000000 1.000000
vn 0.000000 0.000000 1.000000
vn 0.000000 0.000000 1.000000
vn -1.000000 0.000000 0.000000
vn -1.000000 0.000000 0.000000
vn -1.000000 0.000000 0.000000
vn -1.000000 0.000000 0.000000
vn 0.000000 1.000000 0.000000
vn 0.000000 1.000000 0.000000
vn 0.000000 1.000000 0.000000
vn 0.000000 1.000000 0.000000
vn 0.000000 -1.000000 0.000000
vn 0.000000 -1.000000 0.000000
vn 0.000000 -1.000000 0.000000
vn 0.000000 -1.000000 0.000000
vn 0.000000 0.000000 -1.000000
vn 0.000000 0.000000 -1.000000
vn 0.000000 0.000000 -1.000000
vn 0.000000 0.000000 -1.000000
vn 1.000000 0.000000 0.000000
vn 1.000000 0.000000 0.000000
vn 1.000000 0.000000 0.000000
vn 1.000000 0.000000 0.000000
vn 0.000000 0.000000 1.000000
vn 0.000000 0.000000 1.000000
vn 0.000000 0.000000 1.000000
vn 0.000000 0.000000 1.000000
vn -1.000000 0.000000 0.000000
vn -1.000000 0.000000 0.000000
vn -1.000000 0.000000 0.000000
vn -1.000000 0.000000 0.000000
vn 0.000000 1.000000 0.000000
vn 0.000000 1.000000 0.000000
vn 0.000000 1.000000 0.000000
vn 0.000000 1.000000 0.000000
vn 0.000000 -1.000000 0.000000
vn 0.000000 -1.000000 0.000000
vn 0.000000 -1.000000 0.000000
vn 0.000000 -1.000000 0.000000
vn 0.000000 0.000000 -1.000000
vn 0.000000 0.000000 -1.000000
vn 0.000000 0.000000 -1.000000
vn 0.000000 0.000000 -1.000000
vn 1.000000 0.000000 0.000000
vn 1.000000 0.000000 0.000000
vn 1.000000 0.000000 0.000000
vn 1.000000 0.000000 0.000000
vn 0.000000 0.000000 1.000000
vn 0.000000 0.000000 1.000000
vn 0.000000 0.000000 1.000000
vn 0.000000 0.000000 1.000000
vn -1.000000 0.000000 0.000000
vn -1.000000 0.000000 0.000000
vn -1.000000 0.000000 0.000000
vn -1.000000 0.000000 0.000000
vn 0.000000 1.000000 0.000000
vn 0.000000 1.000000 0.000000
vn 0.000000 1.000000 0.000000
vn 0.000000 1.000000 0.000000
vn 0.000000 -1.000000 0.000000
vn 0.000000 -1.000000 0.000000
vn 0.000000 -1.000000 0.000000
vn 0.000000 -1.000000 0.000000
vn 0.000000 0.000000 -1.000000
vn 0.000000 0.000000 -1.000000
vn 0.000000 0.000000 -1.000000
vn 0.000000 0.000000 -1.000000
vn 1.000000 0.000000 0.000000
vn 1.000000 0.000000 0.000000
vn 1.000000 0.000000 0.000000
vn 1.000000 0.000000 0.000000
vn 0.000000 0.000000 1.000000
vn 0.000000 0.000000 1.000000
vn 0.000000 0.000000 1.000000
vn 0.000000 0.000000 1.000000
vn -1.000000 0.000000 0.000000
vn -1.000000 0.000000 0.000000
vn -1.000000 0.000000 0.000000
vn -1.000000 0.000000 0.000000
vn 0.000000 1.000000 0.000000
vn 0.000000 1.000000 0.000000
vn 0.000000 1.000000 0.000000
vn 0.000000 1.000000 0.000000
vn 0.000000 -1.000000 0.000000
vn 0.000000 -1.000000 0.000000
vn 0.000000 -1.000000 0.000000
vn 0.000000 -1.000000 0.000000
vn 0.000000 0.000000 -1.000000
vn 0.000000 0.000000 -1.000000
vn 0.000000 0.000000 -1.000000
vn 0.000000 0.000000 -1.000000
vn 1.000000 0.000000 0.000000
vn 1.000000 0.000000 0.000000
vn 1.000000 0.000000 0.000000
vn 1.000000 0.000000 0.000000
vn 0.000000 0.000000 1.000000
vn 0.000000 0.000000 1.000000
vn 0.000000 0.000000 1.000000
vn 0.000000 0.000000 1.000000
vn -1.000000 0.000000 0.000000
vn -1.000000 0.000000 0.000000
vn -1.000000 0.000000 0.000000
vn -1.000000 0.000000 0.000000
vn 0.000000 1.000000 0.000000
vn 0.000000 1.000000 0.000000
vn 0.000000 1.000000 0.000000
vn 0.000000 1.000000 0.000000
vn 0.000000 -1.000000 0.000000
vn 0.000000 -1.000000 0.000000
vn 0.000000 -1.000000 0.000000
vn 0.000000 -1.000000 0.000000
vn 0.000000 0.000000 -1.000000
vn 0.000000 0.000000 -1.000000
vn 0.000000 0.000000 -1.000000
vn 0.000000 0.000000 -1.000000
vn 1.000000 0.000000 0.000000
vn 1.000000 0.000000 0.000000
vn 1.000000 0.000000 0.000000
vn 1.000000 0.000000 0.000000
vn 0.000000 0.000000 1.000000
vn 0.000000 0.000000 1.000000
vn 0.000000 0.000000 1.000000
vn 0.000000 0.000000 1.000000
vn -1.000000 0.000000 0.000000
vn -1.000000 0.000000 0.000000
vn -1.000000 0.000000 0.000000
vn -1.000000 0.000000 0.000000
vn 0.000000 1.000000 0.000000
vn 0.000000 1.000000 0.000000
vn 0.000000 1.000000 0.000000
vn 0.000000 1.000000 0.000000
vn 0.000000 -1.000000 0.000000
vn 0.000000 -1.000000 0.000000
vn 0.000000 -1.000000 0.000000
vn 0.000000 -1.000000 0.000000
vn 0.000000 0.000000 -1.000000
vn 0.000000 0.000000 -1.000000
vn 0.000000 0.000000 -1.000000
vn 0.000000 0.000000 -1.000000
vn 1.000000 0.000000 0.000000
vn 1.000000 0.000000 0.000000
vn 1.000000 0.000000 0.000000
vn 1.000000 0.000000 0.000000
vn 0.000000 0.000000 1.000000
vn 0.000000 0.000000 1.000000
vn 0.000000 0.000000 1.000000
vn 0.000000 0.000000 1.000000
vn -1.000000 0.000000 0.000000
vn -1.000000 0.000000 0.000000
vn -1.000000 0.000000 0.000000
vn -1.000000 0.000000 0.000000
vn 0.000000 1.000000 0.000000
vn 0.000000 1.000000 0.000000
vn 0.000000 1.000000 0.000000
vn 0.000000 1.000000 0.000000
vn 0.000000 -1.000000 0.000000
vn 0.000000 -1.000000 0.000000
vn 0.000000 -1.000000 0.000000
vn 0.000000 -1.000000 0.000000
vn 0.000000 0.000000 -1.000000
vn 0.000000 0.000000 -1.000000
vn 0.000000 0.000000 -1.000000
vn 0.000000 0.000000 -1.000000
vn 1.000000 0.000000 0.000000
vn 1.000000 0.000000 0.000000
vn 1.000000 0.000000 0.000000
vn 1.000000 0.000000 0.000000
vn 0.000000 0.000000 1.000000
vn 0.000000 0.000000 1.000000
vn 0.000000 0.000000 1.000000
vn 0.000000 0.000000 1.000000
vn -1.000000 0.000000 0.000000
vn -1.000000 0.000000 0.000000
vn -1.000000 0.000000 0.000000
vn -1.000000 0.000000 0.000000
vn 0.000000 1.000000 0.000000
vn 0.000000 1.000000 0.000000
vn 0.000000 1.000000 0.000000
vn 0.000000 1.000000 0.000000
vn 0.000000 -1.000000 0.000000
vn 0.000000 -1.000000 0.000000
vn 0.000000 -1.000000 0.000000
vn 0.000000 -1.000000 0.000000
s off
g Gloves1 Boxing_Gloves:Mesh
usemtl Boxing_Gloves:m_2
f 4/1/1 7/2/2 5/3/3 2/4/4
f 3/5/5 4/6/6 2/7/7 1/8/8
f 8/9/9 3/10/10 1/11/11 6/12/12
f 7/13/13 8/14/14 6/15/15 5/16/16
f 6/17/17 1/18/18 2/19/19 5/20/20
f 7/21/21 4/22/22 3/23/23 8/24/24
f 12/25/25 15/26/26 13/27/27 10/28/28
f 11/29/29 12/30/30 10/31/31 9/32/32
f 16/33/33 11/34/34 9/35/35 14/36/36
f 15/37/37 16/38/38 14/39/39 13/40/40
f 14/41/41 9/42/42 10/43/43 13/44/44
f 15/45/45 12/46/46 11/47/47 16/48/48
f 20/49/49 23/50/50 21/51/51 18/52/52
f 19/53/53 20/54/54 18/55/55 17/56/56
f 24/57/57 19/58/58 17/59/59 22/60/60
f 23/61/61 24/62/62 22/63/63 21/64/64
f 22/65/65 17/66/66 18/67/67 21/68/68
f 23/69/69 20/70/70 19/71/71 24/72/72
f 28/73/73 31/74/74 29/75/75 26/76/76
f 27/77/77 28/78/78 26/79/79 25/80/80
f 32/81/81 27/82/82 25/83/83 30/84/84
f 31/85/85 32/86/86 30/87/87 29/88/88
f 30/89/89 25/90/90 26/91/91 29/92/92
f 31/93/93 28/94/94 27/95/95 32/96/96
f 36/97/97 39/98/98 37/99/99 34/100/100
f 35/101/101 36/102/102 34/103/103 33/104/104
f 40/105/105 35/106/106 33/107/107 38/108/108
f 39/109/109 40/110/110 38/111/111 37/112/112
f 38/113/113 33/114/114 34/115/115 37/116/116
f 39/117/117 36/118/118 35/119/119 40/120/120
f 44/121/121 47/122/122 45/123/123 42/124/124
f 43/125/125 44/126/126 42/127/127 41/128/128
f 48/129/129 43/130/130 41/131/131 46/132/132
f 47/133/133 48/134/134 46/135/135 45/136/136
f 46/137/137 41/138/138 42/139/139 45/140/140
f 47/141/141 44/142/142 43/143/143 48/144/144
f 52/145/145 55/146/146 53/147/147 50/148/148
f 51/149/149 52/150/150 50/151/151 49/152/152
f 56/153/153 51/154/154 49/155/155 54/156/156
f 55/157/157 56/158/158 54/159/159 53/160/160
f 54/161/161 49/162/162 50/163/163 53/164/164
f 55/165/165 52/166/166 51/167/167 56/168/168
f 60/169/169 63/170/170 61/171/171 58/172/172
f 59/173/173 60/174/174 58/175/175 57/176/176
f 64/177/177 59/178/178 57/179/179 62/180/180
f 63/181/181 64/182/182 62/183/183 61/184/184
f 62/185/185 57/186/186 58/187/187 61/188/188
f 63/189/189 60/190/190 59/191/191 64/192/192
f 68/193/193 71/194/194 69/195/195 66/196/196
f 67/197/197 68/198/198 66/199/199 65/200/200
f 72/201/201 67/202/202 65/203/203 70/204/204
f 71/205/205 72/206/206 70/207/207 69/208/208
f 70/209/209 65/210/210 66/211/211 69/212/212
f 71/213/213 68/214/214 67/215/215 72/216/216
g default
v 0.292245 0.000000 0.292245
v 0.292245 0.000000 -0.292245
v 0.292245 -1.168979 0.292245
v 0.292245 -1.168979 -0.292245
v -0.292245 0.000000 -0.292245
v -0.292245 0.000000 0.292245
v -0.292245 -1.168979 -0.292245
v -0.292245 -1.168979 0.292245
vt 0.281250 0.593750
vt 0.312500 0.593750
vt 0.312500 0.656250
vt 0.281250 0.656250
vt 0.312500 0.593750
vt 0.343750 0.593750
vt 0.343750 0.656250
vt 0.312500 0.656250
vt 0.343750 0.593750
vt 0.375000 0.593750
vt 0.375000 0.656250
vt 0.343750 0.656250
vt 0.375000 0.937500
vt 0.406250 0.937500
vt 0.406250 1.000000
vt 0.375000 1.000000
vt 0.437500 1.000000
vt 0.406250 1.000000
vt 0.406250 0.968750
vt 0.437500 0.968750
vt 0.062500 0.562500
vt 0.031250 0.562500
vt 0.031250 0.593750
vt 0.062500 0.593750
vn 0.000000 0.000000 -1.000000
vn 0.000000 0.000000 -1.000000
vn 0.000000 0.000000 -1.000000
vn 0.000000 0.000000 -1.000000
vn 1.000000 0.000000 0.000000
vn 1.000000 0.000000 0.000000
vn 1.000000 0.000000 0.000000
vn 1.000000 0.000000 0.000000
vn 0.000000 0.000000 1.000000
vn 0.000000 0.000000 1.000000
vn 0.000000 0.000000 1.000000
vn 0.000000 0.000000 1.000000
vn -1.000000 0.000000 0.000000
vn -1.000000 0.000000 0.000000
vn -1.000000 0.000000 0.000000
vn -1.000000 0.000000 0.000000
vn 0.000000 1.000000 0.000000
vn 0.000000 1.000000 0.000000
vn 0.000000 1.000000 0.000000
vn 0.000000 1.000000 0.000000
vn 0.000000 -1.000000 0.000000
vn 0.000000 -1.000000 0.000000
vn 0.000000 -1.000000 0.000000
vn 0.000000 -1.000000 0.000000
s off
g Boxing_Gloves:Mesh Gloves2
usemtl Boxing_Gloves:m_2
f 76/217/217 79/218/218 77/219/219 74/220/220
f 75/221/221 76/222/222 74/223/223 73/224/224
f 80/225/225 75/226/226 73/227/227 78/228/228
f 79/229/229 80/230/230 78/231/231 77/232/232
f 78/233/233 73/234/234 74/235/235 77/236/236
f 79/237/237 76/238/238 75/239/239 80/240/240
