# This file uses centimeters as units for non-parametric coordinates.

mtllib Winning.mtl
g default
v 7.547973 -4.072221 -1.125305
v 7.205403 -4.072221 -1.125305
v 7.034118 -4.072221 -0.828631
v 7.205403 -4.072221 -0.531957
v 7.547973 -4.072221 -0.531957
v 7.719258 -4.072221 -0.828631
v 7.547973 4.556688 -1.125305
v 7.205403 4.556688 -1.125305
v 7.034118 4.556688 -0.828631
v 7.205403 4.556688 -0.531957
v 7.547973 4.556688 -0.531957
v 7.719258 4.556688 -0.828631
v 7.376688 -4.072221 -0.828631
v 7.376688 4.556688 -0.828631
vt 0.075958 0.921333
vt 0.066475 0.921333
vt 0.061734 0.929545
vt 0.066475 0.937757
vt 0.075958 0.937757
vt 0.080699 0.929545
vt 0.063631 0.939028
vt 0.066159 0.939028
vt 0.068688 0.939028
vt 0.071217 0.939028
vt 0.073745 0.939028
vt 0.076274 0.939028
vt 0.078803 0.939028
vt 0.063631 0.961842
vt 0.066159 0.961842
vt 0.068688 0.961842
vt 0.071217 0.961842
vt 0.073745 0.961842
vt 0.076274 0.961842
vt 0.078803 0.961842
vt 0.075958 0.963056
vt 0.066475 0.963056
vt 0.061734 0.971268
vt 0.066475 0.979480
vt 0.075958 0.979480
vt 0.080699 0.971268
vt 0.071217 0.929166
vt 0.071217 0.970889
vn 0.000000 0.000000 -1.000000
vn 0.000000 0.000000 -1.000000
vn 0.000000 0.000000 -1.000000
vn 0.000000 0.000000 -1.000000
vn -0.866025 0.000000 -0.500000
vn -0.866025 0.000000 -0.500000
vn -0.866025 0.000000 -0.500000
vn -0.866025 0.000000 -0.500000
vn -0.866026 0.000000 0.500000
vn -0.866026 0.000000 0.500000
vn -0.866026 0.000000 0.500000
vn -0.866026 0.000000 0.500000
vn 0.000000 0.000000 1.000000
vn 0.000000 0.000000 1.000000
vn 0.000000 0.000000 1.000000
vn 0.000000 0.000000 1.000000
vn 0.866025 0.000000 0.500000
vn 0.866025 0.000000 0.500000
vn 0.866025 0.000000 0.500000
vn 0.866025 0.000000 0.500000
vn 0.866026 0.000000 -0.500000
vn 0.866026 0.000000 -0.500000
vn 0.866026 0.000000 -0.500000
vn 0.866026 0.000000 -0.500000
vn 0.000000 -1.000000 0.000001
vn 0.000000 -1.000000 0.000000
vn 0.000000 -1.000000 0.000000
vn 0.000000 -1.000000 0.000001
vn 0.000000 -1.000000 -0.000001
vn 0.000000 -1.000000 0.000000
vn 0.000000 -1.000000 0.000001
vn 0.000000 1.000000 0.000001
vn 0.000000 1.000000 0.000000
vn 0.000000 1.000000 -0.000000
vn 0.000000 1.000000 -0.000001
vn 0.000000 1.000000 -0.000001
vn 0.000000 1.000000 0.000000
vn 0.000000 1.000000 0.000001
s off
g pCylinder2 Winning
usemtl initialShadingGroup
f 1/7/1 2/8/2 8/15/3 7/14/4
f 2/8/5 3/9/6 9/16/7 8/15/8
f 3/9/9 4/10/10 10/17/11 9/16/12
f 4/10/13 5/11/14 11/18/15 10/17/16
f 5/11/17 6/12/18 12/19/19 11/18/20
f 6/12/21 1/13/22 7/20/23 12/19/24
s 1
f 2/2/25 1/1/26 13/27/27
f 3/3/28 2/2/25 13/27/27
f 4/4/29 3/3/28 13/27/27
f 5/5/30 4/4/29 13/27/27
f 6/6/31 5/5/30 13/27/27
f 1/1/26 6/6/31 13/27/27
s 2
f 7/25/32 8/24/33 14/28/34
f 8/24/33 9/23/35 14/28/34
f 9/23/35 10/22/36 14/28/34
f 10/22/36 11/21/37 14/28/34
f 11/21/37 12/26/38 14/28/34
f 12/26/38 7/25/32 14/28/34
g default
v -6.773580 -4.072221 -1.125305
v -7.116149 -4.072221 -1.125305
v -7.287434 -4.072221 -0.828631
v -7.116150 -4.072221 -0.531957
v -6.773580 -4.072221 -0.531957
v -6.602295 -4.072221 -0.828631
v -6.773580 4.556688 -1.125305
v -7.116149 4.556688 -1.125305
v -7.287434 4.556688 -0.828631
v -7.116150 4.556688 -0.531957
v -6.773580 4.556688 -0.531957
v -6.602295 4.556688 -0.828631
v -6.944865 -4.072221 -0.828631
v -6.944865 4.556688 -0.828631
vt 0.075958 0.921333
vt 0.066475 0.921333
vt 0.061734 0.929545
vt 0.066475 0.937757
vt 0.075958 0.937757
vt 0.080699 0.929545
vt 0.063631 0.939027
vt 0.066159 0.939027
vt 0.068688 0.939027
vt 0.071217 0.939027
vt 0.073745 0.939027
vt 0.076274 0.939027
vt 0.078803 0.939027
vt 0.063631 0.961842
vt 0.066159 0.961842
vt 0.068688 0.961842
vt 0.071217 0.961842
vt 0.073745 0.961842
vt 0.076274 0.961842
vt 0.078803 0.961842
vt 0.075958 0.963056
vt 0.066475 0.963056
vt 0.061734 0.971268
vt 0.066475 0.979480
vt 0.075958 0.979480
vt 0.080699 0.971268
vt 0.071217 0.929166
vt 0.071217 0.970888
vn 0.000000 0.000000 -1.000000
vn 0.000000 0.000000 -1.000000
vn 0.000000 0.000000 -1.000000
vn 0.000000 0.000000 -1.000000
vn -0.866025 0.000000 -0.500000
vn -0.866025 0.000000 -0.500000
vn -0.866025 0.000000 -0.500000
vn -0.866025 0.000000 -0.500000
vn -0.866026 0.000000 0.500000
vn -0.866026 0.000000 0.500000
vn -0.866026 0.000000 0.500000
vn -0.866026 0.000000 0.500000
vn 0.000000 0.000000 1.000000
vn 0.000000 0.000000 1.000000
vn 0.000000 0.000000 1.000000
vn 0.000000 0.000000 1.000000
vn 0.866025 0.000000 0.500000
vn 0.866025 0.000000 0.500000
vn 0.866025 0.000000 0.500000
vn 0.866025 0.000000 0.500000
vn 0.866026 0.000000 -0.500000
vn 0.866026 0.000000 -0.500000
vn 0.866026 0.000000 -0.500000
vn 0.866026 0.000000 -0.500000
vn 0.000000 -1.000000 0.000001
vn 0.000000 -1.000000 0.000000
vn 0.000000 -1.000000 0.000000
vn 0.000000 -1.000000 0.000001
vn 0.000000 -1.000000 -0.000001
vn 0.000000 -1.000000 0.000000
vn 0.000000 -1.000000 0.000001
vn 0.000000 1.000000 0.000001
vn 0.000000 1.000000 0.000000
vn 0.000000 1.000000 -0.000000
vn 0.000000 1.000000 -0.000001
vn 0.000000 1.000000 -0.000001
vn 0.000000 1.000000 0.000000
vn 0.000000 1.000000 0.000001
s off
g Winning pCylinder1
usemtl initialShadingGroup
f 15/35/39 16/36/40 22/43/41 21/42/42
f 16/36/43 17/37/44 23/44/45 22/43/46
f 17/37/47 18/38/48 24/45/49 23/44/50
f 18/38/51 19/39/52 25/46/53 24/45/54
f 19/39/55 20/40/56 26/47/57 25/46/58
f 20/40/59 15/41/60 21/48/61 26/47/62
s 1
f 16/30/63 15/29/64 27/55/65
f 17/31/66 16/30/63 27/55/65
f 18/32/67 17/31/66 27/55/65
f 19/33/68 18/32/67 27/55/65
f 20/34/69 19/33/68 27/55/65
f 15/29/64 20/34/69 27/55/65
s 2
f 21/53/70 22/52/71 28/56/72
f 22/52/71 23/51/73 28/56/72
f 23/51/73 24/50/74 28/56/72
f 24/50/74 25/49/75 28/56/72
f 25/49/75 26/54/76 28/56/72
f 26/54/76 21/53/70 28/56/72
g default
v -7.140384 0.508976 -0.805706
v 7.503904 0.508976 -0.805706
v -7.140384 4.254686 -0.805706
v 7.503904 4.254686 -0.805706
vt 0.220420 0.073586
vt 0.779580 0.073586
vt 0.220420 0.209673
vt 0.779580 0.209673
vn 0.000000 0.000000 1.000000
vn 0.000000 0.000000 1.000000
vn 0.000000 0.000000 1.000000
vn 0.000000 0.000000 1.000000
s off
g Winning pPlane1
usemtl initialShadingGroup
f 29/57/77 30/58/78 32/60/79 31/59/80
