# Made in Blockbench 4.3.1
mtllib Angel.mtl

o tube
v 0 0.125 0.5625
v 0 0.25 0.5625
v 0 0.125 0.4375
v 0 0.25 0.4375
v 0.397747564417433 0.125 0.39774756441743303
v 0.397747564417433 0.25 0.39774756441743303
v 0.3093592167691145 0.125 0.30935921676911454
v 0.3093592167691145 0.25 0.30935921676911454
v 0.5625 0.125 3.444319122601931e-17
v 0.5625 0.25 3.444319122601931e-17
v 0.4375 0.125 2.678914873134835e-17
v 0.4375 0.25 2.678914873134835e-17
v 0.39774756441743303 0.125 -0.397747564417433
v 0.39774756441743303 0.25 -0.397747564417433
v 0.30935921676911454 0.125 -0.3093592167691145
v 0.30935921676911454 0.25 -0.3093592167691145
v 6.888638245203862e-17 0.125 -0.5625
v 6.888638245203862e-17 0.25 -0.5625
v 5.35782974626967e-17 0.125 -0.4375
v 5.35782974626967e-17 0.25 -0.4375
v -0.397747564417433 0.125 -0.3977475644174331
v -0.397747564417433 0.25 -0.3977475644174331
v -0.3093592167691145 0.125 -0.3093592167691146
v -0.3093592167691145 0.25 -0.3093592167691146
v -0.5625 0.125 -1.0332957367805792e-16
v -0.5625 0.25 -1.0332957367805792e-16
v -0.4375 0.125 -8.036744619404505e-17
v -0.4375 0.25 -8.036744619404505e-17
v -0.3977475644174331 0.125 0.39774756441743286
v -0.3977475644174331 0.25 0.39774756441743286
v -0.3093592167691146 0.125 0.3093592167691145
v -0.3093592167691146 0.25 0.3093592167691145
vt 0.21875 0.875
vt 0.4375 0.875
vt 0.4375 0.9375
vt 0.21875 0.9375
vt 0.71875 0.59375
vt 0.5625 0.59375
vt 0.5625 0.53125
vt 0.71875 0.53125
vt 0.4375 0.972591706773052
vt 0.4375 0.8051685079040445
vt 0.5 0.78125
vt 0.5 0.9965100897364136
vt 0.28125 0.625
vt 0.4965100897751369 0.625
vt 0.47259048655059754 0.6875
vt 0.3051672877117078 0.6875
vt 0 0.8125
vt 0.21875 0.8125
vt 0.21875 0.875
vt 0 0.875
vt 0.15625 0.46875
vt 0 0.46875
vt 0 0.40625
vt 0.15625 0.40625
vt 0.28125 0.5350915818323694
vt 0.28125 0.3676683829633618
vt 0.34375 0.34375
vt 0.34375 0.5590100897364136
vt 0 0.6875
vt 0.21526008977513691 0.6875
vt 0.19134280206342916 0.75
vt 0.023919603224539412 0.75
vt 0 0.875
vt 0.21875 0.875
vt 0.21875 0.9375
vt 0 0.9375
vt 0.71875 0.9375
vt 0.5625 0.9375
vt 0.5625 0.875
vt 0.71875 0.875
vt 0.5350917067730518 0.5625
vt 0.3676685079040444 0.5625
vt 0.34375 0.5
vt 0.5590100897364136 0.5
vt 0.125 0.4722399102248631
vt 0.125 0.6875
vt 0.0625 0.6635803967754607
vt 0.0625 0.49615719793657087
vt 0.21875 0.8125
vt 0.4375 0.8125
vt 0.4375 0.875
vt 0.21875 0.875
vt 0.71875 0.53125
vt 0.5625 0.53125
vt 0.5625 0.46875
vt 0.71875 0.46875
vt 0.6913415818323693 1
vt 0.5239183829633618 1
vt 0.5 0.9375
vt 0.7152600897364136 0.9375
vt 0.28125 0.5347399102248631
vt 0.28125 0.75
vt 0.21875 0.7260827122882922
vt 0.21875 0.5586595134494025
vt 0.21875 0.9375
vt 0.4375 0.9375
vt 0.4375 1
vt 0.21875 1
vt 0.71875 0.8125
vt 0.5625 0.8125
vt 0.5625 0.75
vt 0.71875 0.75
vt 0.25 0.3364183829633618
vt 0.25 0.5038415818323694
vt 0.1875 0.5277600897364136
vt 0.1875 0.3125
vt 0.4965100897751369 0.625
vt 0.28125 0.625
vt 0.30516960322453934 0.5625
vt 0.4725928020634291 0.5625
vt 0 0.75
vt 0.21875 0.75
vt 0.21875 0.8125
vt 0 0.8125
vt 0.71875 0.875
vt 0.5625 0.875
vt 0.5625 0.8125
vt 0.71875 0.8125
vt 0.5625 0.7426685079040444
vt 0.5625 0.910091706773052
vt 0.5 0.9340100897364136
vt 0.5 0.71875
vt 0.4965100897751369 0.75
vt 0.28125 0.75
vt 0.3051672877117078 0.6875
vt 0.47259048655059754 0.6875
vt 0 0.9375
vt 0.21875 0.9375
vt 0.21875 1
vt 0 1
vt 0.65625 0.65625
vt 0.5 0.65625
vt 0.5 0.59375
vt 0.65625 0.59375
vt 0.5239183829633618 0.65625
vt 0.6913415818323693 0.65625
vt 0.7152600897364136 0.71875
vt 0.5 0.71875
vt 0.125 0.6875
vt 0.125 0.4722399102248631
vt 0.1875 0.49615951344940246
vt 0.1875 0.6635827122882922
vt 0.21875 0.75
vt 0.4375 0.75
vt 0.4375 0.8125
vt 0.21875 0.8125
vt 0.5 0.4375
vt 0.34375 0.4375
vt 0.34375 0.375
vt 0.5 0.375
vt 0.36766850790404443 0.4375
vt 0.535091706773052 0.4375
vt 0.5590100897364136 0.5
vt 0.34375 0.5
vt 0 0.6875
vt 0 0.4722399102248631
vt 0.0625 0.49615719793657087
vt 0.0625 0.6635803967754605
vn 0.3826834323650898 0 0.923879532511287
vn -0.3826834323650899 0 -0.9238795325112868
vn 0 -1 0
vn 0 1 0
vn 0.9238795325112867 0 0.3826834323650898
vn -0.9238795325112868 0 -0.38268343236509
vn 0 -1 0
vn 0 1 0
vn 0.923879532511287 0 -0.3826834323650897
vn -0.9238795325112868 0 0.3826834323650899
vn 0 -1 0
vn 0 1 0
vn 0.3826834323650898 0 -0.9238795325112867
vn -0.38268343236509006 0 0.9238795325112868
vn 0 -1 0
vn 0 1 0
vn -0.38268343236508956 0 -0.9238795325112868
vn 0.3826834323650896 0 0.9238795325112868
vn 0 -1 0
vn 0 1 0
vn -0.9238795325112867 0 -0.3826834323650898
vn 0.9238795325112868 0 0.38268343236509
vn 0 -1 0
vn 0 1 0
vn -0.9238795325112868 0 0.3826834323650896
vn 0.9238795325112868 0 -0.3826834323650896
vn 0 -1 0
vn 0 1 0
vn -0.38268343236509 0 0.9238795325112868
vn 0.3826834323650899 0 -0.9238795325112868
vn 0 -1 0
vn 0 1 0
usemtl m_0
f 1/1/1 5/2/1 6/3/1 2/4/1
f 4/5/2 8/6/2 7/7/2 3/8/2
f 3/9/3 7/10/3 5/11/3 1/12/3
f 2/13/4 6/14/4 8/15/4 4/16/4
f 5/17/5 9/18/5 10/19/5 6/20/5
f 8/21/6 12/22/6 11/23/6 7/24/6
f 7/25/7 11/26/7 9/27/7 5/28/7
f 6/29/8 10/30/8 12/31/8 8/32/8
f 9/33/9 13/34/9 14/35/9 10/36/9
f 12/37/10 16/38/10 15/39/10 11/40/10
f 11/41/11 15/42/11 13/43/11 9/44/11
f 10/45/12 14/46/12 16/47/12 12/48/12
f 13/49/13 17/50/13 18/51/13 14/52/13
f 16/53/14 20/54/14 19/55/14 15/56/14
f 15/57/15 19/58/15 17/59/15 13/60/15
f 14/61/16 18/62/16 20/63/16 16/64/16
f 17/65/17 21/66/17 22/67/17 18/68/17
f 20/69/18 24/70/18 23/71/18 19/72/18
f 19/73/19 23/74/19 21/75/19 17/76/19
f 18/77/20 22/78/20 24/79/20 20/80/20
f 21/81/21 25/82/21 26/83/21 22/84/21
f 24/85/22 28/86/22 27/87/22 23/88/22
f 23/89/23 27/90/23 25/91/23 21/92/23
f 22/93/24 26/94/24 28/95/24 24/96/24
f 25/97/25 29/98/25 30/99/25 26/100/25
f 28/101/26 32/102/26 31/103/26 27/104/26
f 27/105/27 31/106/27 29/107/27 25/108/27
f 26/109/28 30/110/28 32/111/28 28/112/28
f 29/113/29 1/114/29 2/115/29 30/116/29
f 32/117/30 4/118/30 3/119/30 31/120/30
f 31/121/31 3/122/31 1/123/31 29/124/31
f 30/125/32 2/126/32 4/127/32 32/128/32