# Made in Blockbench 4.3.1
mtllib Angel_Wing.mtl

o plane
v 0 0 0
v 0 1.125 -2.498001805406602e-16
v -1.125 0 0
v -1.125 1.125 -2.498001805406602e-16
vt 0.4764705882352941 0.022580645161290103
vt 0.4764705882352941 1
vt 0 1
vt 0 0.022580645161290103
vn 0 2.220446049250313e-16 1
usemtl m_0
f 1/1/1 2/2/1 4/3/1 3/4/1
o plane
v 1.125 0 0
v 1.125 1.125 -2.498001805406602e-16
v 0 0 0
v 0 1.125 -2.498001805406602e-16
vt 0.9921568627450981 0.022580645161290103
vt 0.9921568627450981 1
vt 0.515686274509804 1
vt 0.515686274509804 0.022580645161290103
vn 0 2.220446049250313e-16 1
usemtl m_0
f 5/5/2 6/6/2 8/7/2 7/8/2