# Made in Blockbench 4.2.5
mtllib Catus2.mtl

o cube
v 0.03125 0.3125 -0.0625
v 0.03125 0.3125 -0.25
v 0.03125 0.25 -0.0625
v 0.03125 0.25 -0.25
v -0.03125 0.3125 -0.25
v -0.03125 0.3125 -0.0625
v -0.03125 0.25 -0.25
v -0.03125 0.25 -0.0625
vt 0.5625 0.5625
vt 0.59375 0.5625
vt 0.59375 0.53125
vt 0.5625 0.53125
vt 0.5 0.625
vt 0.59375 0.625
vt 0.59375 0.59375
vt 0.5 0.59375
vt 0.5625 0.53125
vt 0.59375 0.53125
vt 0.59375 0.5
vt 0.5625 0.5
vt 0.5 0.59375
vt 0.59375 0.59375
vt 0.59375 0.5625
vt 0.5 0.5625
vt 0.53125 0.46875
vt 0.5 0.46875
vt 0.5 0.5625
vt 0.53125 0.5625
vt 0.5625 0.5625
vt 0.53125 0.5625
vt 0.53125 0.46875
vt 0.5625 0.46875
vn 0 0 -1
vn 1 0 0
vn 0 0 1
vn -1 0 0
vn 0 1 0
vn 0 -1 0
usemtl m_1
f 4/4/1 7/3/1 5/2/1 2/1/1
f 3/8/2 4/7/2 2/6/2 1/5/2
f 8/12/3 3/11/3 1/10/3 6/9/3
f 7/16/4 8/15/4 6/14/4 5/13/4
f 6/20/5 1/19/5 2/18/5 5/17/5
f 7/24/6 4/23/6 3/22/6 8/21/6
o cube
v 0.0625 0.6875 -0.25
v 0.0625 0.6875 -0.375
v 0.0625 0.25 -0.25
v 0.0625 0.25 -0.375
v -0.0625 0.6875 -0.375
v -0.0625 0.6875 -0.25
v -0.0625 0.25 -0.375
v -0.0625 0.25 -0.25
vt 0.25 1
vt 0.3125 1
vt 0.3125 0.78125
vt 0.25 0.78125
vt 0.25 0.78125
vt 0.3125 0.78125
vt 0.3125 0.5625
vt 0.25 0.5625
vt 0.3125 1
vt 0.375 1
vt 0.375 0.78125
vt 0.3125 0.78125
vt 0.3125 0.78125
vt 0.375 0.78125
vt 0.375 0.5625
vt 0.3125 0.5625
vt 0.5625 0.9375
vt 0.5 0.9375
vt 0.5 1
vt 0.5625 1
vt 0.5625 0.9375
vt 0.5 0.9375
vt 0.5 0.875
vt 0.5625 0.875
vn 0 0 -1
vn 1 0 0
vn 0 0 1
vn -1 0 0
vn 0 1 0
vn 0 -1 0
usemtl m_1
f 12/28/7 15/27/7 13/26/7 10/25/7
f 11/32/8 12/31/8 10/30/8 9/29/8
f 16/36/9 11/35/9 9/34/9 14/33/9
f 15/40/10 16/39/10 14/38/10 13/37/10
f 14/44/11 9/43/11 10/42/11 13/41/11
f 15/48/12 12/47/12 11/46/12 16/45/12
o cube
v 0.03125 0.5625 0.25
v 0.03125 0.5625 0.0625
v 0.03125 0.5 0.25
v 0.03125 0.5 0.0625
v -0.03125 0.5625 0.0625
v -0.03125 0.5625 0.25
v -0.03125 0.5 0.0625
v -0.03125 0.5 0.25
vt 0.5 0.4375
vt 0.53125 0.4375
vt 0.53125 0.40625
vt 0.5 0.40625
vt 0.5 0.46875
vt 0.59375 0.46875
vt 0.59375 0.4375
vt 0.5 0.4375
vt 0.5625 0.5
vt 0.59375 0.5
vt 0.59375 0.46875
vt 0.5625 0.46875
vt 0 0.4375
vt 0.09375 0.4375
vt 0.09375 0.40625
vt 0 0.40625
vt 0.59375 0.90625
vt 0.5625 0.90625
vt 0.5625 1
vt 0.59375 1
vt 0.125 0.4375
vt 0.09375 0.4375
vt 0.09375 0.34375
vt 0.125 0.34375
vn 0 0 -1
vn 1 0 0
vn 0 0 1
vn -1 0 0
vn 0 1 0
vn 0 -1 0
usemtl m_1
f 20/52/13 23/51/13 21/50/13 18/49/13
f 19/56/14 20/55/14 18/54/14 17/53/14
f 24/60/15 19/59/15 17/58/15 22/57/15
f 23/64/16 24/63/16 22/62/16 21/61/16
f 22/68/17 17/67/17 18/66/17 21/65/17
f 23/72/18 20/71/18 19/70/18 24/69/18
o cube
v 0.0625 0.9375 0.375
v 0.0625 0.9375 0.25
v 0.0625 0.5 0.375
v 0.0625 0.5 0.25
v -0.0625 0.9375 0.25
v -0.0625 0.9375 0.375
v -0.0625 0.5 0.25
v -0.0625 0.5 0.375
vt 0.375 1
vt 0.4375 1
vt 0.4375 0.78125
vt 0.375 0.78125
vt 0.375 0.78125
vt 0.4375 0.78125
vt 0.4375 0.5625
vt 0.375 0.5625
vt 0.4375 1
vt 0.5 1
vt 0.5 0.78125
vt 0.4375 0.78125
vt 0.4375 0.78125
vt 0.5 0.78125
vt 0.5 0.5625
vt 0.4375 0.5625
vt 0.5625 0.8125
vt 0.5 0.8125
vt 0.5 0.875
vt 0.5625 0.875
vt 0.5625 0.8125
vt 0.5 0.8125
vt 0.5 0.75
vt 0.5625 0.75
vn 0 0 -1
vn 1 0 0
vn 0 0 1
vn -1 0 0
vn 0 1 0
vn 0 -1 0
usemtl m_1
f 28/76/19 31/75/19 29/74/19 26/73/19
f 27/80/20 28/79/20 26/78/20 25/77/20
f 32/84/21 27/83/21 25/82/21 30/81/21
f 31/88/22 32/87/22 30/86/22 29/85/22
f 30/92/23 25/91/23 26/90/23 29/89/23
f 31/96/24 28/95/24 27/94/24 32/93/24
o cube
v 0.0625 1.125 0.0625
v 0.0625 1.125 -0.0625
v 0.0625 0 0.0625
v 0.0625 0 -0.0625
v -0.0625 1.125 -0.0625
v -0.0625 1.125 0.0625
v -0.0625 0 -0.0625
v -0.0625 0 0.0625
vt 0 1
vt 0.0625 1
vt 0.0625 0.4375
vt 0 0.4375
vt 0.0625 1
vt 0.125 1
vt 0.125 0.4375
vt 0.0625 0.4375
vt 0.125 1
vt 0.1875 1
vt 0.1875 0.4375
vt 0.125 0.4375
vt 0.1875 1
vt 0.25 1
vt 0.25 0.4375
vt 0.1875 0.4375
vt 0.5625 0.6875
vt 0.5 0.6875
vt 0.5 0.75
vt 0.5625 0.75
vt 0.5625 0.6875
vt 0.5 0.6875
vt 0.5 0.625
vt 0.5625 0.625
vn 0 0 -1
vn 1 0 0
vn 0 0 1
vn -1 0 0
vn 0 1 0
vn 0 -1 0
usemtl m_1
f 36/100/25 39/99/25 37/98/25 34/97/25
f 35/104/26 36/103/26 34/102/26 33/101/26
f 40/108/27 35/107/27 33/106/27 38/105/27
f 39/112/28 40/111/28 38/110/28 37/109/28
f 38/116/29 33/115/29 34/114/29 37/113/29
f 39/120/30 36/119/30 35/118/30 40/117/30
o plane
v 0.109375 0.1625 -3.608224830031759e-17
v 0.109375 0.2125 -4.718447854656915e-17
v -0.015625 0.1625 -3.608224830031759e-17
v -0.015625 0.2125 -4.718447854656915e-17
vt 0.625 0.625
vt 0.625 0.65625
vt 0.5625 0.65625
vt 0.5625 0.625
vn 0 2.220446049250313e-16 1
usemtl m_1
f 41/121/31 42/122/31 44/123/31 43/124/31
o plane
v 0.09375 0.35 0.046874999999999924
v 0.09375 0.4 0.04687499999999991
v -0.03125 0.35 0.046874999999999924
v -0.03125 0.4 0.04687499999999991
vt 0.625 0.625
vt 0.625 0.65625
vt 0.5625 0.65625
vt 0.5625 0.625
vn 0 2.220446049250313e-16 1
usemtl m_1
f 45/125/32 46/126/32 48/127/32 47/128/32
o plane
v 0.109375 0.5375 -0.04687500000000012
v 0.109375 0.5875 -0.04687500000000013
v -0.015625 0.5375 -0.04687500000000012
v -0.015625 0.5875 -0.04687500000000013
vt 0.625 0.625
vt 0.625 0.65625
vt 0.5625 0.65625
vt 0.5625 0.625
vn 0 2.220446049250313e-16 1
usemtl m_1
f 49/129/33 50/130/33 52/131/33 51/132/33
o plane
v 0.09375 0.725 -0.04687500000000016
v 0.09375 0.775 -0.046875000000000173
v -0.03125 0.725 -0.04687500000000016
v -0.03125 0.775 -0.046875000000000173
vt 0.625 0.625
vt 0.625 0.65625
vt 0.5625 0.65625
vt 0.5625 0.625
vn 0 2.220446049250313e-16 1
usemtl m_1
f 53/133/34 54/134/34 56/135/34 55/136/34
o plane
v 0.09375 0.865625 0.03124999999999981
v 0.09375 0.915625 0.031249999999999795
v -0.03125 0.865625 0.03124999999999981
v -0.03125 0.915625 0.031249999999999795
vt 0.625 0.625
vt 0.625 0.65625
vt 0.5625 0.65625
vt 0.5625 0.625
vn 0 2.220446049250313e-16 1
usemtl m_1
f 57/137/35 58/138/35 60/139/35 59/140/35
o plane
v 0.09375 0.75625 0.031249999999999833
v 0.09375 0.80625 0.03124999999999982
v -0.03125 0.75625 0.031249999999999833
v -0.03125 0.80625 0.03124999999999982
vt 0.625 0.625
vt 0.625 0.65625
vt 0.5625 0.65625
vt 0.5625 0.625
vn 0 2.220446049250313e-16 1
usemtl m_1
f 61/141/36 62/142/36 64/143/36 63/144/36
o plane
v 0.109375 1.053125 -0.031250000000000236
v 0.109375 1.103125 -0.03125000000000024
v -0.015625 1.053125 -0.031250000000000236
v -0.015625 1.103125 -0.03125000000000024
vt 0.625 0.625
vt 0.625 0.65625
vt 0.5625 0.65625
vt 0.5625 0.625
vn 0 2.220446049250313e-16 1
usemtl m_1
f 65/145/37 66/146/37 68/147/37 67/148/37
o plane
v -0.03906249999999992 0.21250000000000002 0.023437500000002207
v -0.03906249999999992 0.1625000000000002 0.02343750000000248
v -0.03906249999999992 0.21249999999999936 -0.1015624999999978
v -0.03906249999999992 0.16249999999999953 -0.10156249999999752
vt 0.625 0.625
vt 0.625 0.65625
vt 0.5625 0.65625
vt 0.5625 0.625
vn 1 5.551115123125783e-17 -3.0814879110195774e-31
usemtl m_1
f 69/149/38 70/150/38 72/151/38 71/152/38
o plane
v 0.023437500000000062 0.5093750000000001 0.02343750000000056
v 0.023437500000000066 0.4593750000000001 0.02343750000000084
v 0.023437500000000062 0.5093749999999995 -0.10156249999999944
v 0.023437500000000066 0.4593749999999994 -0.10156249999999917
vt 0.625 0.625
vt 0.625 0.65625
vt 0.5625 0.65625
vt 0.5625 0.625
vn 1 5.551115123125783e-17 -3.0814879110195774e-31
usemtl m_1
f 73/153/39 74/154/39 76/155/39 75/156/39
o plane
v 0.02343750000000007 0.40000000000000013 0.023437500000001166
v 0.023437500000000073 0.3500000000000001 0.023437500000001447
v 0.02343750000000007 0.39999999999999947 -0.10156249999999883
v 0.023437500000000073 0.3499999999999994 -0.10156249999999856
vt 0.625 0.625
vt 0.625 0.65625
vt 0.5625 0.65625
vt 0.5625 0.625
vn 1 5.551115123125783e-17 -3.0814879110195774e-31
usemtl m_1
f 77/157/40 78/158/40 80/159/40 79/160/40
o plane
v -0.054687499999999944 0.5406250000000001 0.023437500000000378
v -0.05468749999999993 0.4906250000000001 0.02343750000000066
v -0.054687499999999944 0.5406249999999995 -0.10156249999999961
v -0.05468749999999993 0.4906249999999994 -0.10156249999999933
vt 0.625 0.625
vt 0.625 0.65625
vt 0.5625 0.65625
vt 0.5625 0.625
vn 1 5.551115123125783e-17 -3.0814879110195774e-31
usemtl m_1
f 81/161/41 82/162/41 84/163/41 83/164/41
o plane
v -0.054687499999999944 0.7281250000000002 0.03906249999999934
v -0.054687499999999944 0.6781250000000002 0.03906249999999962
v -0.054687499999999944 0.7281249999999996 -0.08593750000000065
v -0.054687499999999944 0.6781249999999995 -0.08593750000000037
vt 0.625 0.625
vt 0.625 0.65625
vt 0.5625 0.65625
vt 0.5625 0.625
vn 1 5.551115123125783e-17 -3.0814879110195774e-31
usemtl m_1
f 85/165/42 86/166/42 88/167/42 87/168/42
o plane
v 0.03906250000000004 0.9156250000000001 0.023437499999998303
v 0.03906250000000004 0.8656250000000001 0.023437499999998584
v 0.03906250000000004 0.9156249999999995 -0.1015625000000017
v 0.03906250000000004 0.8656249999999994 -0.10156250000000142
vt 0.625 0.625
vt 0.625 0.65625
vt 0.5625 0.65625
vt 0.5625 0.625
vn 1 5.551115123125783e-17 -3.0814879110195774e-31
usemtl m_1
f 89/169/43 90/170/43 92/171/43 91/172/43
o plane
v -0.007812499999999972 1.1031250000000004 0.07031249999999727
v -0.007812499999999965 1.0531250000000003 0.07031249999999754
v -0.007812499999999972 1.1031249999999997 -0.054687500000002734
v -0.007812499999999965 1.0531249999999996 -0.054687500000002456
vt 0.625 0.625
vt 0.625 0.65625
vt 0.5625 0.65625
vt 0.5625 0.625
vn 1 5.551115123125783e-17 -3.0814879110195774e-31
usemtl m_1
f 93/173/44 94/174/44 96/175/44 95/176/44
o plane
v 0.015625000000000056 0.9156249999999995 -0.04687500000000351
v 0.01562500000000005 0.8656249999999994 -0.04687500000000292
v -0.10937499999999994 0.9156249999999995 -0.04687500000000351
v -0.10937499999999994 0.8656249999999994 -0.04687500000000292
vt 0.625 0.625
vt 0.625 0.65625
vt 0.5625 0.65625
vt 0.5625 0.625
vn 6.93334779979475e-33 -1.176836406102666e-14 -1
usemtl m_1
f 97/177/45 98/178/45 100/179/45 99/180/45
o plane
v 0.03125000000000002 0.7281250000000006 0.046874999999998695
v 0.031250000000000014 0.6781250000000005 0.046874999999999285
v -0.09374999999999997 0.7281250000000006 0.046874999999998695
v -0.09375 0.6781250000000005 0.046874999999999285
vt 0.625 0.625
vt 0.625 0.65625
vt 0.5625 0.65625
vt 0.5625 0.625
vn 6.93334779979475e-33 -1.176836406102666e-14 -1
usemtl m_1
f 101/181/46 102/182/46 104/183/46 103/184/46
o plane
v 0.01562499999999998 0.5406250000000006 0.0468750000000009
v 0.015624999999999972 0.49062500000000053 0.04687500000000149
v -0.10937500000000003 0.5406250000000006 0.0468750000000009
v -0.10937500000000003 0.49062500000000053 0.04687500000000149
vt 0.625 0.625
vt 0.625 0.65625
vt 0.5625 0.65625
vt 0.5625 0.625
vn 6.93334779979475e-33 -1.176836406102666e-14 -1
usemtl m_1
f 105/185/47 106/186/47 108/187/47 107/188/47
o plane
v 0.015624999999999965 0.4624999999999997 -0.031249999999998175
v 0.015624999999999958 0.41249999999999964 -0.03124999999999759
v -0.10937500000000003 0.4624999999999997 -0.031249999999998175
v -0.10937500000000006 0.41249999999999964 -0.03124999999999759
vt 0.625 0.625
vt 0.625 0.65625
vt 0.5625 0.65625
vt 0.5625 0.625
vn 6.93334779979475e-33 -1.176836406102666e-14 -1
usemtl m_1
f 109/189/48 110/190/48 112/191/48 111/192/48
o plane
v 0.03124999999999994 0.3531250000000002 0.015625000000003112
v 0.031249999999999934 0.30312500000000014 0.0156250000000037
v -0.09375000000000006 0.35312500000000024 0.015625000000003112
v -0.09375000000000006 0.3031250000000002 0.0156250000000037
vt 0.625 0.625
vt 0.625 0.65625
vt 0.5625 0.65625
vt 0.5625 0.625
vn 6.93334779979475e-33 -1.176836406102666e-14 -1
usemtl m_1
f 113/193/49 114/194/49 116/195/49 115/196/49
o plane
v 0.015624999999999903 0.1656250000000002 0.01562500000000532
v 0.015624999999999896 0.1156250000000002 0.015625000000005905
v -0.10937500000000008 0.16562500000000024 0.01562500000000532
v -0.10937500000000011 0.1156250000000002 0.015625000000005905
vt 0.625 0.625
vt 0.625 0.65625
vt 0.5625 0.65625
vt 0.5625 0.625
vn 6.93334779979475e-33 -1.176836406102666e-14 -1
usemtl m_1
f 117/197/50 118/198/50 120/199/50 119/200/50
o plane
v 0.046875000000000056 0.2875000000000006 0.10937499999999813
v 0.046875000000000056 0.33750000000000063 0.1093749999999978
v 0.046874999999999986 0.2874999999999998 -0.01562500000000187
v 0.046874999999999986 0.33749999999999986 -0.01562500000000219
vt 0.625 0.625
vt 0.625 0.65625
vt 0.5625 0.65625
vt 0.5625 0.625
vn -1 3.574525976782711e-30 5.551115123125784e-16
usemtl m_1
f 121/201/51 122/202/51 124/203/51 123/204/51
o plane
v -0.031249999999999944 0.6156250000000004 0.09374999999999603
v -0.031249999999999944 0.6656250000000005 0.09374999999999571
v -0.031250000000000014 0.6156249999999996 -0.03125000000000395
v -0.031250000000000014 0.6656249999999997 -0.031250000000004274
vt 0.625 0.625
vt 0.625 0.65625
vt 0.5625 0.65625
vt 0.5625 0.625
vn -1 3.574525976782711e-30 5.551115123125784e-16
usemtl m_1
f 125/205/52 126/206/52 128/207/52 127/208/52
o plane
v 0.031250000000000056 0.8031250000000005 0.1093749999999948
v 0.031250000000000056 0.8531250000000004 0.10937499999999448
v 0.031249999999999986 0.8031249999999998 -0.015625000000005183
v 0.031249999999999986 0.8531249999999996 -0.015625000000005503
vt 0.625 0.625
vt 0.625 0.65625
vt 0.5625 0.65625
vt 0.5625 0.625
vn -1 3.574525976782711e-30 5.551115123125784e-16
usemtl m_1
f 129/209/53 130/210/53 132/211/53 131/212/53
o plane
v 0.03906250000000008 0.08750000000000002 0.023437500000002904
v 0.03906250000000009 0.0375000000000002 0.023437500000003178
v 0.03906250000000008 0.08749999999999936 -0.1015624999999971
v 0.03906250000000009 0.037499999999999534 -0.10156249999999682
vt 0.625 0.625
vt 0.625 0.65625
vt 0.5625 0.65625
vt 0.5625 0.625
vn 1 5.551115123125783e-17 -3.0814879110195774e-31
usemtl m_1
f 133/213/54 134/214/54 136/215/54 135/216/54
o plane
v -0.05468749999999997 1.0406250000000001 0.023437499999997606
v -0.05468749999999996 0.9906250000000001 0.023437499999997884
v -0.05468749999999997 1.0406249999999995 -0.10156250000000239
v -0.05468749999999996 0.9906249999999994 -0.10156250000000211
vt 0.625 0.625
vt 0.625 0.65625
vt 0.5625 0.65625
vt 0.5625 0.625
vn 1 5.551115123125783e-17 -3.0814879110195774e-31
usemtl m_1
f 137/217/55 138/218/55 140/219/55 139/220/55
o plane
v 0.023437500000000062 0.44687500000000013 -0.28906249999999944
v 0.023437500000000066 0.3968750000000001 -0.28906249999999917
v 0.023437500000000062 0.44687499999999947 -0.41406249999999944
v 0.023437500000000066 0.3968749999999994 -0.41406249999999917
vt 0.625 0.625
vt 0.625 0.65625
vt 0.5625 0.65625
vt 0.5625 0.625
vn 1 5.551115123125783e-17 -3.0814879110195774e-31
usemtl m_1
f 141/221/56 142/222/56 144/223/56 143/224/56
o plane
v 0.015625000000000056 0.6968749999999995 0.2812499999999965
v 0.01562500000000005 0.6468749999999994 0.2812499999999971
v -0.10937499999999994 0.6968749999999995 0.2812499999999965
v -0.10937499999999994 0.6468749999999994 0.2812499999999971
vt 0.625 0.625
vt 0.625 0.65625
vt 0.5625 0.65625
vt 0.5625 0.625
vn 6.93334779979475e-33 -1.176836406102666e-14 -1
usemtl m_1
f 145/225/57 146/226/57 148/227/57 147/228/57
o plane
v 0.03124999999999994 0.2906250000000002 -0.2968749999999969
v 0.031249999999999934 0.24062500000000014 -0.2968749999999963
v -0.09375000000000006 0.29062500000000024 -0.2968749999999969
v -0.09375000000000006 0.2406250000000002 -0.2968749999999963
vt 0.625 0.625
vt 0.625 0.65625
vt 0.5625 0.65625
vt 0.5625 0.625
vn 6.93334779979475e-33 -1.176836406102666e-14 -1
usemtl m_1
f 149/229/58 150/230/58 152/231/58 151/232/58
o plane
v 0.03125000000000002 0.6656250000000006 -0.2656250000000013
v 0.031250000000000014 0.6156250000000005 -0.2656250000000007
v -0.09374999999999997 0.6656250000000006 -0.2656250000000013
v -0.09375 0.6156250000000005 -0.2656250000000007
vt 0.625 0.625
vt 0.625 0.65625
vt 0.5625 0.65625
vt 0.5625 0.625
vn 6.93334779979475e-33 -1.176836406102666e-14 -1
usemtl m_1
f 153/233/59 154/234/59 156/235/59 155/236/59
o plane
v 0.01562499999999998 0.4781250000000006 -0.2656249999999991
v 0.015624999999999972 0.42812500000000053 -0.2656249999999985
v -0.10937500000000003 0.4781250000000006 -0.2656249999999991
v -0.10937500000000003 0.42812500000000053 -0.2656249999999985
vt 0.625 0.625
vt 0.625 0.65625
vt 0.5625 0.65625
vt 0.5625 0.625
vn 6.93334779979475e-33 -1.176836406102666e-14 -1
usemtl m_1
f 157/237/60 158/238/60 160/239/60 159/240/60
o plane
v 0.015624999999999965 0.3999999999999997 -0.34374999999999817
v 0.015624999999999958 0.34999999999999964 -0.34374999999999756
v -0.10937500000000003 0.3999999999999997 -0.34374999999999817
v -0.10937500000000006 0.34999999999999964 -0.34374999999999756
vt 0.625 0.625
vt 0.625 0.65625
vt 0.5625 0.65625
vt 0.5625 0.625
vn 6.93334779979475e-33 -1.176836406102666e-14 -1
usemtl m_1
f 161/241/61 162/242/61 164/243/61 163/244/61
o plane
v 0.02343750000000007 0.33750000000000013 -0.28906249999999883
v 0.023437500000000073 0.2875000000000001 -0.28906249999999856
v 0.02343750000000007 0.33749999999999947 -0.41406249999999883
v 0.023437500000000073 0.2874999999999994 -0.41406249999999856
vt 0.625 0.625
vt 0.625 0.65625
vt 0.5625 0.65625
vt 0.5625 0.625
vn 1 5.551115123125783e-17 -3.0814879110195774e-31
usemtl m_1
f 165/245/62 166/246/62 168/247/62 167/248/62
o plane
v -0.05468749999999997 0.8218750000000001 0.3515624999999976
v -0.05468749999999996 0.7718750000000001 0.3515624999999979
v -0.05468749999999997 0.8218749999999995 0.2265624999999976
v -0.05468749999999996 0.7718749999999994 0.2265624999999979
vt 0.625 0.625
vt 0.625 0.65625
vt 0.5625 0.65625
vt 0.5625 0.625
vn 1 5.551115123125783e-17 -3.0814879110195774e-31
usemtl m_1
f 169/249/63 170/250/63 172/251/63 171/252/63
o plane
v -0.054687499999999944 0.47812500000000013 -0.2890624999999996
v -0.05468749999999993 0.4281250000000001 -0.28906249999999933
v -0.054687499999999944 0.47812499999999947 -0.4140624999999996
v -0.05468749999999993 0.4281249999999994 -0.41406249999999933
vt 0.625 0.625
vt 0.625 0.65625
vt 0.5625 0.65625
vt 0.5625 0.625
vn 1 5.551115123125783e-17 -3.0814879110195774e-31
usemtl m_1
f 173/253/64 174/254/64 176/255/64 175/256/64
o plane
v -0.054687499999999944 0.6656250000000002 -0.27343750000000067
v -0.054687499999999944 0.6156250000000002 -0.2734375000000004
v -0.054687499999999944 0.6656249999999996 -0.39843750000000067
v -0.054687499999999944 0.6156249999999995 -0.39843750000000033
vt 0.625 0.625
vt 0.625 0.65625
vt 0.5625 0.65625
vt 0.5625 0.625
vn 1 5.551115123125783e-17 -3.0814879110195774e-31
usemtl m_1
f 177/257/65 178/258/65 180/259/65 179/260/65
o plane
v 0.03906250000000004 0.6968750000000001 0.35156249999999833
v 0.03906250000000004 0.6468750000000001 0.3515624999999986
v 0.03906250000000004 0.6968749999999995 0.22656249999999833
v 0.03906250000000004 0.6468749999999994 0.2265624999999986
vt 0.625 0.625
vt 0.625 0.65625
vt 0.5625 0.65625
vt 0.5625 0.625
vn 1 5.551115123125783e-17 -3.0814879110195774e-31
usemtl m_1
f 181/261/66 182/262/66 184/263/66 183/264/66
o plane
v -0.007812499999999972 0.8843750000000004 0.3984374999999973
v -0.007812499999999965 0.8343750000000003 0.39843749999999756
v -0.007812499999999972 0.8843749999999997 0.2734374999999973
v -0.007812499999999965 0.8343749999999996 0.27343749999999756
vt 0.625 0.625
vt 0.625 0.65625
vt 0.5625 0.65625
vt 0.5625 0.625
vn 1 5.551115123125783e-17 -3.0814879110195774e-31
usemtl m_1
f 185/265/67 186/266/67 188/267/67 187/268/67
o plane
v -0.031249999999999944 0.5531250000000004 -0.21875000000000397
v -0.031249999999999944 0.6031250000000005 -0.21875000000000427
v -0.031250000000000014 0.5531249999999996 -0.34375000000000394
v -0.031250000000000014 0.6031249999999997 -0.3437500000000043
vt 0.625 0.625
vt 0.625 0.65625
vt 0.5625 0.65625
vt 0.5625 0.625
vn -1 3.574525976782711e-30 5.551115123125784e-16
usemtl m_1
f 189/269/68 190/270/68 192/271/68 191/272/68
o plane
v 0.031250000000000056 0.5843750000000005 0.4374999999999948
v 0.031250000000000056 0.6343750000000004 0.43749999999999445
v 0.031249999999999986 0.5843749999999998 0.31249999999999484
v 0.031249999999999986 0.6343749999999996 0.3124999999999945
vt 0.625 0.625
vt 0.625 0.65625
vt 0.5625 0.65625
vt 0.5625 0.625
vn -1 3.574525976782711e-30 5.551115123125784e-16
usemtl m_1
f 193/273/69 194/274/69 196/275/69 195/276/69
o plane
v 0.109375 0.8343750000000001 0.2968749999999998
v 0.109375 0.8843749999999999 0.2968749999999998
v -0.015625 0.8343750000000001 0.2968749999999998
v -0.015625 0.8843749999999999 0.2968749999999998
vt 0.625 0.625
vt 0.625 0.65625
vt 0.5625 0.65625
vt 0.5625 0.625
vn 0 2.220446049250313e-16 1
usemtl m_1
f 197/277/70 198/278/70 200/279/70 199/280/70
o plane
v 0.09375 0.5375 0.35937499999999983
v 0.09375 0.5875 0.35937499999999983
v -0.03125 0.5375 0.35937499999999983
v -0.03125 0.5875 0.35937499999999983
vt 0.625 0.625
vt 0.625 0.65625
vt 0.5625 0.65625
vt 0.5625 0.625
vn 0 2.220446049250313e-16 1
usemtl m_1
f 201/281/71 202/282/71 204/283/71 203/284/71
o plane
v 0.09375 0.646875 0.35937499999999983
v 0.09375 0.696875 0.3593749999999998
v -0.03125 0.646875 0.35937499999999983
v -0.03125 0.696875 0.3593749999999998
vt 0.625 0.625
vt 0.625 0.65625
vt 0.5625 0.65625
vt 0.5625 0.625
vn 0 2.220446049250313e-16 1
usemtl m_1
f 205/285/72 206/286/72 208/287/72 207/288/72
o plane
v 0.09375 0.50625 0.28124999999999983
v 0.09375 0.55625 0.28124999999999983
v -0.03125 0.50625 0.28124999999999983
v -0.03125 0.55625 0.28124999999999983
vt 0.625 0.625
vt 0.625 0.65625
vt 0.5625 0.65625
vt 0.5625 0.625
vn 0 2.220446049250313e-16 1
usemtl m_1
f 209/289/73 210/290/73 212/291/73 211/292/73
o plane
v 0.109375 0.475 -0.3593750000000001
v 0.109375 0.525 -0.3593750000000001
v -0.015625 0.475 -0.3593750000000001
v -0.015625 0.525 -0.3593750000000001
vt 0.625 0.625
vt 0.625 0.65625
vt 0.5625 0.65625
vt 0.5625 0.625
vn 0 2.220446049250313e-16 1
usemtl m_1
f 213/293/74 214/294/74 216/295/74 215/296/74
o plane
v 0.09375 0.2875 -0.26562500000000006
v 0.09375 0.3375 -0.2656250000000001
v -0.03125 0.2875 -0.26562500000000006
v -0.03125 0.3375 -0.2656250000000001
vt 0.625 0.625
vt 0.625 0.65625
vt 0.5625 0.65625
vt 0.5625 0.625
vn 0 2.220446049250313e-16 1
usemtl m_1
f 217/297/75 218/298/75 220/299/75 219/300/75
o plane
v -0.031249999999999938 0.11562500000000075 0.10937499999999925
v -0.031249999999999938 0.16562500000000058 0.10937499999999893
v -0.03125000000000001 0.11562499999999996 -0.015625000000000732
v -0.03125000000000001 0.1656249999999998 -0.01562500000000105
vt 0.625 0.625
vt 0.625 0.65625
vt 0.5625 0.65625
vt 0.5625 0.625
vn -1 3.574525976782711e-30 5.551115123125784e-16
usemtl m_1
f 221/301/76 222/302/76 224/303/76 223/304/76
o plane
v -0.031249999999999938 0.36562500000000075 0.10937499999999764
v -0.031249999999999938 0.4156250000000005 0.10937499999999732
v -0.03125000000000001 0.3656249999999999 -0.015625000000002342
v -0.03125000000000001 0.4156249999999997 -0.01562500000000266
vt 0.625 0.625
vt 0.625 0.65625
vt 0.5625 0.65625
vt 0.5625 0.625
vn -1 3.574525976782711e-30 5.551115123125784e-16
usemtl m_1
f 225/305/77 226/306/77 228/307/77 227/308/77
o plane
v -0.031249999999999938 0.9906250000000005 0.10937499999999362
v -0.031249999999999938 1.0406250000000004 0.1093749999999933
v -0.03125000000000001 0.9906249999999998 -0.015625000000006366
v -0.03125000000000001 1.0406249999999997 -0.015625000000006686
vt 0.625 0.625
vt 0.625 0.65625
vt 0.5625 0.65625
vt 0.5625 0.625
vn -1 3.574525976782711e-30 5.551115123125784e-16
usemtl m_1
f 229/309/78 230/310/78 232/311/78 231/312/78
o plane
v 0.031250000000000056 0.9281250000000005 0.10937499999999399
v 0.031250000000000056 0.9781250000000004 0.10937499999999367
v 0.031249999999999986 0.9281249999999998 -0.01562500000000599
v 0.031249999999999986 0.9781249999999996 -0.015625000000006307
vt 0.625 0.625
vt 0.625 0.65625
vt 0.5625 0.65625
vt 0.5625 0.625
vn -1 3.574525976782711e-30 5.551115123125784e-16
usemtl m_1
f 233/313/79 234/314/79 236/315/79 235/316/79
o plane
v 0.046875000000000056 0.6781250000000006 0.1093749999999956
v 0.046875000000000056 0.7281250000000005 0.10937499999999528
v 0.046874999999999986 0.6781249999999999 -0.015625000000004385
v 0.046874999999999986 0.7281249999999997 -0.015625000000004705
vt 0.625 0.625
vt 0.625 0.65625
vt 0.5625 0.65625
vt 0.5625 0.625
vn -1 3.574525976782711e-30 5.551115123125784e-16
usemtl m_1
f 237/317/80 238/318/80 240/319/80 239/320/80