# Made in Blockbench 4.2.5
mtllib DeadBush.mtl

o plane
v 0.5 -0.0625 1.3877787807814457e-17
v 0.5 0.9375 -2.0816681711721685e-16
v -0.5 -0.0625 1.3877787807814457e-17
v -0.5 0.9375 -2.0816681711721685e-16
vt 1 0
vt 1 1
vt 0 1
vt 0 0
vn 0 2.220446049250313e-16 1
usemtl m_0
f 1/1/1 2/2/1 4/3/1 3/4/1
o plane
v 1.1102230246251565e-16 -0.062499999999999445 0.5000000000000001
v 1.1102230246251565e-16 0.9375000000000006 0.49999999999999895
v -1.1102230246251565e-16 -0.06250000000000056 -0.49999999999999994
v -1.1102230246251565e-16 0.9374999999999994 -0.500000000000001
vt 1 0
vt 1 1
vt 0 1
vt 0 0
vn -1 2.465190328815662e-31 2.220446049250313e-16
usemtl m_0
f 5/5/2 6/6/2 8/7/2 7/8/2