g SK_IronGolem.mo
v 0.1390387 -0.3766985 2.650897
v -0.3590321 -0.3571271 2.024664
v -0.3608399 -0.3657565 2.649602
v 0.1408465 -0.3680691 2.025959
v -0.3499169 0.1340761 2.656536
v -0.3481091 0.1427055 2.031598
v 0.1517695 0.1317635 2.032893
v 0.1499617 0.1231341 2.657831
v 0.1390387 -0.3766985 2.650897
v 0.1499617 0.1231341 2.657831
v 0.1408465 -0.3680691 2.025959
v 0.1517695 0.1317635 2.032893
v 0.1408465 -0.3680691 2.025959
v -0.3481091 0.1427055 2.031598
v -0.3590321 -0.3571271 2.024664
v 0.1517695 0.1317635 2.032893
v -0.3590321 -0.3571271 2.024664
v -0.3481091 0.1427055 2.031598
v -0.3499169 0.1340761 2.656536
v -0.3608399 -0.3657565 2.649602
v 0.1390387 -0.3766985 2.650897
v -0.3608399 -0.3657565 2.649602
v 0.1499617 0.1231341 2.657831
v -0.3499169 0.1340761 2.656536
v -0.1748507 -0.4887773 2.210898
v -0.04988103 -0.4915128 2.211222
v -0.1741276 -0.4853256 1.960923
v -0.04915791 -0.4880611 1.961247
v -0.1713968 -0.3603674 1.962656
v -0.04642716 -0.3631029 1.96298
v -0.1721199 -0.3638192 2.212631
v -0.04715029 -0.3665547 2.212955
v -0.04642716 -0.3631029 1.96298
v -0.04915791 -0.4880611 1.961247
v -0.04988103 -0.4915128 2.211222
v -0.04715029 -0.3665547 2.212955
v -0.04915791 -0.4880611 1.961247
v -0.1713968 -0.3603674 1.962656
v -0.1741276 -0.4853256 1.960923
v -0.04642716 -0.3631029 1.96298
v -0.1748507 -0.4887773 2.210898
v -0.1741276 -0.4853256 1.960923
v -0.1713968 -0.3603674 1.962656
v -0.1721199 -0.3638192 2.212631
v -0.04988103 -0.4915128 2.211222
v -0.1748507 -0.4887773 2.210898
v -0.04715029 -0.3665547 2.212955
v -0.1721199 -0.3638192 2.212631
v 0.3868798 -0.5031145 2.069683
v 0.6309227 -0.5487449 2.099024
v 0.5953713 -0.5850686 0.2081139
v 0.8394142 -0.630699 0.237455
v 0.6652502 -0.2167325 0.1997245
v 0.9092932 -0.2623628 0.2290656
v 0.4567588 -0.1347783 2.061294
v 0.7008017 -0.1804087 2.090635
v 0.9092932 -0.2623628 0.2290656
v 0.8394142 -0.630699 0.237455
v 0.7008017 -0.1804087 2.090635
v 0.6309227 -0.5487449 2.099024
v 0.8394142 -0.630699 0.237455
v 0.6652502 -0.2167325 0.1997245
v 0.5953713 -0.5850686 0.2081139
v 0.9092932 -0.2623628 0.2290656
v 0.5953713 -0.5850686 0.2081139
v 0.6652502 -0.2167325 0.1997245
v 0.4567588 -0.1347783 2.061294
v 0.3868798 -0.5031145 2.069683
v 0.6309227 -0.5487449 2.099024
v 0.3868798 -0.5031145 2.069683
v 0.7008017 -0.1804087 2.090635
v 0.4567588 -0.1347783 2.061294
v -0.9492757 0.2180642 2.016609
v -0.73985 0.08306278 1.996227
v -1.064681 0.321151 0.148005
v -0.8552549 0.1861495 0.1276231
v -0.8611884 0.6360998 0.1528124
v -0.6517626 0.5010984 0.1324305
v -0.7457834 0.5330131 2.021416
v -0.5363576 0.3980116 2.001034
v -0.6517626 0.5010984 0.1324305
v -0.8552549 0.1861495 0.1276231
v -0.73985 0.08306278 1.996227
v -0.5363576 0.3980116 2.001034
v -0.6517626 0.5010984 0.1324305
v -0.8611884 0.6360998 0.1528124
v -0.8552549 0.1861495 0.1276231
v -1.064681 0.321151 0.148005
v -1.064681 0.321151 0.148005
v -0.8611884 0.6360998 0.1528124
v -0.9492757 0.2180642 2.016609
v -0.7457834 0.5330131 2.021416
v -0.5363576 0.3980116 2.001034
v -0.9492757 0.2180642 2.016609
v -0.7457834 0.5330131 2.021416
v -0.73985 0.08306278 1.996227
v 0.1631302 -0.2190401 1.294429
v -0.3629296 -0.05646297 0.9614238
v -0.3684117 -0.03622963 1.27322
v 0.1686122 -0.2392735 0.9826325
v 0.2911268 0.1145376 0.9618267
v -0.2458971 0.3175815 1.252414
v -0.2404151 0.2973481 0.940618
v 0.2856448 0.134771 1.273623
v 0.1631302 -0.2190401 1.294429
v 0.2856448 0.134771 1.273623
v 0.1686122 -0.2392735 0.9826325
v 0.2911268 0.1145376 0.9618267
v 0.1686122 -0.2392735 0.9826325
v -0.2404151 0.2973481 0.940618
v -0.3629296 -0.05646297 0.9614238
v 0.2911268 0.1145376 0.9618267
v -0.3629296 -0.05646297 0.9614238
v -0.2404151 0.2973481 0.940618
v -0.2458971 0.3175815 1.252414
v -0.3684117 -0.03622963 1.27322
v 0.1631302 -0.2190401 1.294429
v -0.3684117 -0.03622963 1.27322
v 0.2856448 0.134771 1.273623
v -0.2458971 0.3175815 1.252414
v 0.354487 -0.4387909 2.063746
v -0.6954399 -0.12173 1.273018
v -0.7085967 -0.07316998 2.021329
v 0.3676438 -0.4873509 1.315436
v -0.4708298 0.5269237 1.234875
v 0.5922539 0.1613028 1.277292
v -0.4839866 0.5754837 1.983185
v 0.5790971 0.2098628 2.025603
v 0.354487 -0.4387909 2.063746
v 0.5790971 0.2098628 2.025603
v 0.5922539 0.1613028 1.277292
v 0.3676438 -0.4873509 1.315436
v 0.3676438 -0.4873509 1.315436
v -0.4708298 0.5269237 1.234875
v -0.6954399 -0.12173 1.273018
v 0.5922539 0.1613028 1.277292
v -0.7085967 -0.07316998 2.021329
v -0.6954399 -0.12173 1.273018
v -0.4708298 0.5269237 1.234875
v -0.4839866 0.5754837 1.983185
v 0.354487 -0.4387909 2.063746
v -0.7085967 -0.07316998 2.021329
v 0.5790971 0.2098628 2.025603
v -0.4839866 0.5754837 1.983185
v 0.09098519 -0.3141132 1.003163
v 0.4636475 -0.2723112 1.003812
v 0.09770837 -0.3585368 0.00417305
v 0.4703707 -0.3167349 0.004822189
v 0.06293263 -0.04829487 -0.009856988
v 0.4355949 -0.00649294 -0.00920785
v 0.05620945 -0.003871217 0.9891331
v 0.4288717 0.03793072 0.9897823
v 0.4355949 -0.00649294 -0.00920785
v 0.4703707 -0.3167349 0.004822189
v 0.4636475 -0.2723112 1.003812
v 0.4288717 0.03793072 0.9897823
v 0.4703707 -0.3167349 0.004822189
v 0.06293263 -0.04829487 -0.009856988
v 0.09770837 -0.3585368 0.00417305
v 0.4355949 -0.00649294 -0.00920785
v 0.09098519 -0.3141132 1.003163
v 0.09770837 -0.3585368 0.00417305
v 0.06293263 -0.04829487 -0.009856988
v 0.05620945 -0.003871217 0.9891331
v 0.4636475 -0.2723112 1.003812
v 0.09098519 -0.3141132 1.003163
v 0.4288717 0.03793072 0.9897823
v 0.05620945 -0.003871217 0.9891331
v -0.5696861 0.1564409 1.011221
v -0.3272524 -0.1282336 0.9827374
v -0.60622 0.2250826 0.01424904
v -0.3637863 -0.05959195 -0.01423478
v -0.3680802 0.4273661 0.01944969
v -0.1256465 0.1426916 -0.009034138
v -0.3315462 0.3587245 1.016422
v -0.08911254 0.07405001 0.987938
v -0.1256465 0.1426916 -0.009034138
v -0.3637863 -0.05959195 -0.01423478
v -0.3272524 -0.1282336 0.9827374
v -0.08911254 0.07405001 0.987938
v -0.1256465 0.1426916 -0.009034138
v -0.3680802 0.4273661 0.01944969
v -0.3637863 -0.05959195 -0.01423478
v -0.60622 0.2250826 0.01424904
v -0.60622 0.2250826 0.01424904
v -0.3680802 0.4273661 0.01944969
v -0.5696861 0.1564409 1.011221
v -0.3315462 0.3587245 1.016422
v -0.08911254 0.07405001 0.987938
v -0.5696861 0.1564409 1.011221
v -0.3315462 0.3587245 1.016422
v -0.3272524 -0.1282336 0.9827374
vt 0.125 0.9375
vt 0.0625 0.859375
vt 0.0625 0.9375
vt 0.125 0.859375
vt 0.25 0.9375
vt 0.25 0.859375
vt 0.1875 0.859375
vt 0.1875 0.9375
vt 0.125 0.9375
vt 0.1875 0.9375
vt 0.125 0.859375
vt 0.1875 0.859375
vt 0.1875 0.9999695
vt 0.125 0.9375
vt 0.125 0.9999695
vt 0.1875 0.9375
vt 0.0625 0.859375
vt 3.051758E-05 0.859375
vt 3.051758E-05 0.9375
vt 0.0625 0.9375
vt 0.125 0.9375
vt 0.0625 0.9375
vt 0.125 0.9999695
vt 0.0625 0.9999695
vt 0.203125 0.984375
vt 0.21875 0.984375
vt 0.203125 0.953125
vt 0.21875 0.953125
vt 0.25 0.953125
vt 0.234375 0.953125
vt 0.25 0.984375
vt 0.234375 0.984375
vt 0.234375 0.953125
vt 0.21875 0.953125
vt 0.21875 0.984375
vt 0.234375 0.984375
vt 0.234375 0.9999695
vt 0.21875 0.984375
vt 0.21875 0.9999695
vt 0.234375 0.984375
vt 0.203125 0.984375
vt 0.203125 0.953125
vt 0.1875 0.953125
vt 0.1875 0.984375
vt 0.21875 0.984375
vt 0.203125 0.984375
vt 0.21875 0.9999695
vt 0.203125 0.9999695
vt 0.515625 0.5
vt 0.546875 0.5
vt 0.515625 0.265625
vt 0.546875 0.265625
vt 0.625 0.265625
vt 0.59375 0.265625
vt 0.625 0.5
vt 0.59375 0.5
vt 0.59375 0.265625
vt 0.546875 0.265625
vt 0.59375 0.5
vt 0.546875 0.5
vt 0.578125 0.546875
vt 0.546875 0.5
vt 0.546875 0.546875
vt 0.578125 0.5
vt 0.515625 0.265625
vt 0.46875 0.265625
vt 0.46875 0.5
vt 0.515625 0.5
vt 0.546875 0.5
vt 0.515625 0.5
vt 0.546875 0.546875
vt 0.515625 0.546875
vt 0.515625 0.7890625
vt 0.546875 0.7890625
vt 0.515625 0.5546875
vt 0.546875 0.5546875
vt 0.625 0.5546875
vt 0.59375 0.5546875
vt 0.625 0.7890625
vt 0.59375 0.7890625
vt 0.59375 0.5546875
vt 0.546875 0.5546875
vt 0.546875 0.7890625
vt 0.59375 0.7890625
vt 0.578125 0.7890625
vt 0.546875 0.7890625
vt 0.578125 0.8359375
vt 0.546875 0.8359375
vt 0.515625 0.5546875
vt 0.46875 0.5546875
vt 0.515625 0.7890625
vt 0.46875 0.7890625
vt 0.546875 0.8359375
vt 0.515625 0.7890625
vt 0.515625 0.8359375
vt 0.546875 0.7890625
vt 0.1171875 0.40625
vt 0.046875 0.3671875
vt 0.046875 0.40625
vt 0.1171875 0.3671875
vt 0.1640625 0.3671875
vt 0.234375 0.40625
vt 0.234375 0.3671875
vt 0.1640625 0.40625
vt 0.1171875 0.40625
vt 0.1640625 0.40625
vt 0.1171875 0.3671875
vt 0.1640625 0.3671875
vt 0.1875 0.453125
vt 0.1171875 0.40625
vt 0.1171875 0.453125
vt 0.1875 0.40625
vt 0.046875 0.3671875
vt 3.051758E-05 0.3671875
vt 3.051758E-05 0.40625
vt 0.046875 0.40625
vt 0.1171875 0.40625
vt 0.046875 0.40625
vt 0.1171875 0.453125
vt 0.046875 0.453125
vt 0.2265625 0.6015625
vt 0.0859375 0.5078125
vt 0.0859375 0.6015625
vt 0.2265625 0.5078125
vt 0.453125 0.5078125
vt 0.3125 0.5078125
vt 0.453125 0.6015625
vt 0.3125 0.6015625
vt 0.2265625 0.6015625
vt 0.3125 0.6015625
vt 0.3125 0.5078125
vt 0.2265625 0.5078125
vt 0.3671875 0.6875
vt 0.2265625 0.6015625
vt 0.2265625 0.6875
vt 0.3671875 0.6015625
vt 0.0859375 0.6015625
vt 0.0859375 0.5078125
vt 3.051758E-05 0.5078125
vt 3.051758E-05 0.6015625
vt 0.2265625 0.6015625
vt 0.0859375 0.6015625
vt 0.2265625 0.6875
vt 0.0859375 0.6875
vt 0.5078125 0.9609375
vt 0.5546875 0.9609375
vt 0.5078125 0.8359375
vt 0.5546875 0.8359375
vt 0.640625 0.8359375
vt 0.59375 0.8359375
vt 0.640625 0.9609375
vt 0.59375 0.9609375
vt 0.59375 0.8359375
vt 0.5546875 0.8359375
vt 0.5546875 0.9609375
vt 0.59375 0.9609375
vt 0.6015625 0.9999695
vt 0.5546875 0.9609375
vt 0.5546875 0.9999695
vt 0.6015625 0.9609375
vt 0.5078125 0.9609375
vt 0.5078125 0.8359375
vt 0.46875 0.8359375
vt 0.46875 0.9609375
vt 0.5546875 0.9609375
vt 0.5078125 0.9609375
vt 0.5546875 0.9999695
vt 0.5078125 0.9999695
vt 0.328125 0.9609375
vt 0.375 0.9609375
vt 0.328125 0.8359375
vt 0.375 0.8359375
vt 0.4609375 0.8359375
vt 0.4140625 0.8359375
vt 0.4609375 0.9609375
vt 0.4140625 0.9609375
vt 0.4140625 0.8359375
vt 0.375 0.8359375
vt 0.375 0.9609375
vt 0.4140625 0.9609375
vt 0.421875 0.9609375
vt 0.375 0.9609375
vt 0.421875 0.9999695
vt 0.375 0.9999695
vt 0.328125 0.8359375
vt 0.2890625 0.8359375
vt 0.328125 0.9609375
vt 0.2890625 0.9609375
vt 0.375 0.9999695
vt 0.328125 0.9609375
vt 0.328125 0.9999695
vt 0.375 0.9609375
vn -0.02184597 -0.9996651 -0.01386708
vn -0.02184597 -0.9996651 -0.01386708
vn -0.02184597 -0.9996651 -0.01386708
vn -0.02184603 -0.9996651 -0.013867
vn 0.02184598 0.9996651 0.01386705
vn 0.02184598 0.9996651 0.01386705
vn 0.02184598 0.9996651 0.01386705
vn 0.02184598 0.9996651 0.01386705
vn 0.9997571 -0.02188396 0.00258992
vn 0.9997571 -0.02188396 0.00258992
vn 0.9997571 -0.02188396 0.00258992
vn 0.9997571 -0.02188385 0.002589895
vn 0.002893448 0.01380743 -0.9999005
vn 0.002893448 0.01380743 -0.9999005
vn 0.002893448 0.01380743 -0.9999005
vn 0.002892032 0.01380696 -0.9999005
vn -0.9997571 0.02188395 -0.002589895
vn -0.9997571 0.02188395 -0.002589895
vn -0.9997571 0.02188395 -0.002589895
vn -0.9997571 0.02188378 -0.002589896
vn -0.002893448 -0.01380696 0.9999005
vn -0.002893448 -0.01380696 0.9999005
vn -0.002893448 -0.01380696 0.9999005
vn -0.002893314 -0.01380647 0.9999005
vn -0.02184604 -0.9996651 -0.01386689
vn -0.02184604 -0.9996651 -0.01386689
vn -0.02184604 -0.9996651 -0.01386689
vn -0.02184632 -0.9996651 -0.0138669
vn 0.02184602 0.9996651 0.01386714
vn 0.02184602 0.9996651 0.01386714
vn 0.02184602 0.9996651 0.01386714
vn 0.02184575 0.9996651 0.01386689
vn 0.9997571 -0.02188388 0.002589914
vn 0.9997571 -0.02188388 0.002589914
vn 0.9997571 -0.02188388 0.002589914
vn 0.9997571 -0.02188397 0.002589908
vn 0.002893448 0.01380745 -0.9999005
vn 0.002893448 0.01380745 -0.9999005
vn 0.002893448 0.01380745 -0.9999005
vn 0.002892135 0.01380744 -0.9999005
vn -0.9997571 0.02188409 -0.002589892
vn -0.9997571 0.02188409 -0.002589892
vn -0.9997571 0.02188409 -0.002589892
vn -0.9997571 0.02188381 -0.002589959
vn -0.002891541 -0.01380842 0.9999005
vn -0.002891541 -0.01380842 0.9999005
vn -0.002891541 -0.01380842 0.9999005
vn -0.002894044 -0.01380647 0.9999005
vn -0.1863439 -0.9822298 0.02237183
vn -0.1863439 -0.9822298 0.02237183
vn -0.1863439 -0.9822298 0.02237183
vn -0.1863439 -0.9822298 0.02237181
vn 0.186344 0.9822298 -0.0223718
vn 0.186344 0.9822298 -0.0223718
vn 0.186344 0.9822298 -0.0223718
vn 0.1863439 0.9822298 -0.02237182
vn 0.9761719 -0.1825216 0.1173644
vn 0.9761719 -0.1825216 0.1173644
vn 0.9761719 -0.1825216 0.1173644
vn 0.9761719 -0.1825219 0.1173643
vn 0.1111954 -0.0437088 -0.9928369
vn 0.1111954 -0.0437088 -0.9928369
vn 0.1111954 -0.0437088 -0.9928369
vn 0.1111954 -0.04370888 -0.9928369
vn -0.9761719 0.1825214 -0.1173644
vn -0.9761719 0.1825214 -0.1173644
vn -0.9761719 0.1825214 -0.1173644
vn -0.9761719 0.1825214 -0.1173644
vn -0.1111959 0.04370908 0.9928368
vn -0.1111959 0.04370908 0.9928368
vn -0.1111959 0.04370908 0.9928368
vn -0.111197 0.04370908 0.9928367
vn -0.5426461 -0.8398636 -0.01281958
vn -0.5426461 -0.8398636 -0.01281958
vn -0.5426461 -0.8398636 -0.01281958
vn -0.5426464 -0.8398634 -0.01281961
vn 0.5426459 0.8398637 0.01281961
vn 0.5426459 0.8398637 0.01281961
vn 0.5426459 0.8398637 0.01281961
vn 0.5426463 0.8398635 0.01281961
vn 0.8377033 -0.5400061 -0.08152749
vn 0.8377033 -0.5400061 -0.08152749
vn 0.8377033 -0.5400061 -0.08152749
vn 0.8377033 -0.5400058 -0.0815275
vn -0.06154936 0.05497961 -0.9965887
vn -0.06154936 0.05497961 -0.9965887
vn -0.06154936 0.05497961 -0.9965887
vn -0.06154921 0.0549797 -0.9965887
vn -0.8377032 0.5400061 0.08152749
vn -0.8377032 0.5400061 0.08152749
vn -0.8377032 0.5400061 0.08152749
vn -0.8377033 0.5400058 0.08152748
vn 0.06155015 -0.05497894 0.9965886
vn 0.06155015 -0.05497894 0.9965886
vn 0.06155015 -0.05497894 0.9965886
vn 0.06154888 -0.05498001 0.9965887
vn -0.3267057 -0.9434962 0.05548196
vn -0.3267057 -0.9434962 0.05548196
vn -0.3267057 -0.9434962 0.05548196
vn -0.3267056 -0.9434962 0.05548203
vn 0.3267058 0.9434962 -0.05548215
vn 0.3267058 0.9434962 -0.05548215
vn 0.3267058 0.9434962 -0.05548215
vn 0.3267055 0.9434962 -0.05548204
vn 0.9449633 -0.3249965 0.03770431
vn 0.9449633 -0.3249965 0.03770431
vn 0.9449633 -0.3249965 0.03770431
vn 0.9449633 -0.3249966 0.03770434
vn 0.01754196 -0.06474671 -0.9977475
vn 0.01754196 -0.06474671 -0.9977475
vn 0.01754196 -0.06474671 -0.9977475
vn 0.01754294 -0.06474672 -0.9977475
vn -0.9449633 0.3249963 -0.03770437
vn -0.9449633 0.3249963 -0.03770437
vn -0.9449633 0.3249963 -0.03770437
vn -0.9449633 0.3249963 -0.03770433
vn -0.01754238 0.06474693 0.9977475
vn -0.01754238 0.06474693 0.9977475
vn -0.01754238 0.06474693 0.9977475
vn -0.01754209 0.06474654 0.9977475
vn -0.3267058 -0.9434962 0.05548204
vn -0.3267058 -0.9434962 0.05548204
vn -0.3267058 -0.9434962 0.05548204
vn -0.3267055 -0.9434962 0.05548201
vn 0.3267056 0.9434962 -0.05548209
vn 0.3267056 0.9434962 -0.05548209
vn 0.3267056 0.9434962 -0.05548209
vn 0.3267055 0.9434962 -0.05548186
vn 0.9449633 -0.3249963 0.0377043
vn 0.9449633 -0.3249963 0.0377043
vn 0.9449633 -0.3249963 0.0377043
vn 0.9449633 -0.3249965 0.03770429
vn 0.01754237 -0.06474664 -0.9977475
vn 0.01754237 -0.06474664 -0.9977475
vn 0.01754237 -0.06474664 -0.9977475
vn 0.01754252 -0.06474665 -0.9977475
vn -0.9449633 0.3249964 -0.03770424
vn -0.9449633 0.3249964 -0.03770424
vn -0.9449633 0.3249964 -0.03770424
vn -0.9449633 0.3249964 -0.03770429
vn -0.01754252 0.06474639 0.9977475
vn -0.01754252 0.06474639 0.9977475
vn -0.01754252 0.06474639 0.9977475
vn -0.01754252 0.06474638 0.9977475
vn 0.1112823 -0.9927741 0.04489612
vn 0.1112823 -0.9927741 0.04489612
vn 0.1112823 -0.9927741 0.04489612
vn 0.1112823 -0.9927741 0.04489616
vn -0.1112823 0.9927741 -0.04489617
vn -0.1112823 0.9927741 -0.04489617
vn -0.1112823 0.9927741 -0.04489617
vn -0.1112823 0.9927741 -0.04489616
vn 0.9937661 0.1114719 0.001731047
vn 0.9937661 0.1114719 0.001731047
vn 0.9937661 0.1114719 0.001731047
vn 0.9937661 0.1114717 0.001731046
vn 0.006723182 -0.0444236 -0.9989901
vn 0.006723182 -0.0444236 -0.9989901
vn 0.006723182 -0.0444236 -0.9989901
vn 0.006723177 -0.04442361 -0.9989901
vn -0.9937661 -0.1114718 -0.001731032
vn -0.9937661 -0.1114718 -0.001731032
vn -0.9937661 -0.1114718 -0.001731032
vn -0.9937661 -0.1114718 -0.001731038
vn -0.00672353 0.04442358 0.9989901
vn -0.00672353 0.04442358 0.9989901
vn -0.00672353 0.04442358 0.9989901
vn -0.006723531 0.04442358 0.9989901
vn -0.7620474 -0.6473075 -0.01664203
vn -0.7620474 -0.6473075 -0.01664203
vn -0.7620474 -0.6473075 -0.01664203
vn -0.7620471 -0.6473076 -0.01664204
vn 0.7620474 0.6473073 0.01664203
vn 0.7620474 0.6473073 0.01664203
vn 0.7620474 0.6473073 0.01664203
vn 0.7620473 0.6473075 0.01664204
vn 0.6464899 -0.7591319 -0.07595685
vn 0.6464899 -0.7591319 -0.07595685
vn 0.6464899 -0.7591319 -0.07595685
vn 0.6464898 -0.759132 -0.07595687
vn -0.03653393 0.06864168 -0.9969722
vn -0.03653393 0.06864168 -0.9969722
vn -0.03653393 0.06864168 -0.9969722
vn -0.03653391 0.06864162 -0.9969722
vn -0.6464896 0.7591322 0.07595685
vn -0.6464896 0.7591322 0.07595685
vn -0.6464896 0.7591322 0.07595685
vn -0.6464899 0.759132 0.07595689
vn 0.03653437 -0.06864158 0.9969722
vn 0.03653437 -0.06864158 0.9969722
vn 0.03653437 -0.06864158 0.9969722
vn 0.03653361 -0.06864158 0.9969722
g SK_IronGolem.mo_0
f 3/3/3 2/2/2 1/1/1
f 2/2/2 4/4/4 1/1/1
f 7/7/7 6/6/6 5/5/5
f 5/5/5 8/8/8 7/7/7
f 11/11/11 10/10/10 9/9/9
f 12/12/12 10/10/10 11/11/11
f 15/15/15 14/14/14 13/13/13
f 14/14/14 16/16/16 13/13/13
f 19/19/19 18/18/18 17/17/17
f 17/17/17 20/20/20 19/19/19
f 23/23/23 22/22/22 21/21/21
f 23/23/23 24/24/24 22/22/22
f 27/27/27 26/26/26 25/25/25
f 27/27/27 28/28/28 26/26/26
f 31/31/31 30/30/30 29/29/29
f 31/31/31 32/32/32 30/30/30
f 35/35/35 34/34/34 33/33/33
f 33/33/33 36/36/36 35/35/35
f 39/39/39 38/38/38 37/37/37
f 38/38/38 40/40/40 37/37/37
f 43/43/43 42/42/42 41/41/41
f 41/41/41 44/44/44 43/43/43
f 47/47/47 46/46/46 45/45/45
f 47/47/47 48/48/48 46/46/46
f 51/51/51 50/50/50 49/49/49
f 51/51/51 52/52/52 50/50/50
f 55/55/55 54/54/54 53/53/53
f 55/55/55 56/56/56 54/54/54
f 59/59/59 58/58/58 57/57/57
f 58/58/58 59/59/59 60/60/60
f 63/63/63 62/62/62 61/61/61
f 62/62/62 64/64/64 61/61/61
f 67/67/67 66/66/66 65/65/65
f 65/65/65 68/68/68 67/67/67
f 71/71/71 70/70/70 69/69/69
f 71/71/71 72/72/72 70/70/70
f 75/75/75 74/74/74 73/73/73
f 75/75/75 76/76/76 74/74/74
f 79/79/79 78/78/78 77/77/77
f 79/79/79 80/80/80 78/78/78
f 83/83/83 82/82/82 81/81/81
f 81/81/81 84/84/84 83/83/83
f 87/87/87 86/86/86 85/85/85
f 87/87/87 88/88/88 86/86/86
f 91/91/91 90/90/90 89/89/89
f 90/90/90 91/91/91 92/92/92
f 95/95/95 94/94/94 93/93/93
f 94/94/94 96/96/96 93/93/93
f 99/99/99 98/98/98 97/97/97
f 98/98/98 100/100/100 97/97/97
f 103/103/103 102/102/102 101/101/101
f 102/102/102 104/104/104 101/101/101
f 107/107/107 106/106/106 105/105/105
f 108/108/108 106/106/106 107/107/107
f 111/111/111 110/110/110 109/109/109
f 110/110/110 112/112/112 109/109/109
f 115/115/115 114/114/114 113/113/113
f 113/113/113 116/116/116 115/115/115
f 119/119/119 118/118/118 117/117/117
f 119/119/119 120/120/120 118/118/118
f 123/123/123 122/122/122 121/121/121
f 122/122/122 124/124/124 121/121/121
f 127/127/127 126/126/126 125/125/125
f 127/127/127 128/128/128 126/126/126
f 131/131/131 130/130/130 129/129/129
f 129/129/129 132/132/132 131/131/131
f 135/135/135 134/134/134 133/133/133
f 134/134/134 136/136/136 133/133/133
f 139/139/139 138/138/138 137/137/137
f 137/137/137 140/140/140 139/139/139
f 143/143/143 142/142/142 141/141/141
f 143/143/143 144/144/144 142/142/142
f 147/147/147 146/146/146 145/145/145
f 147/147/147 148/148/148 146/146/146
f 151/151/151 150/150/150 149/149/149
f 151/151/151 152/152/152 150/150/150
f 155/155/155 154/154/154 153/153/153
f 153/153/153 156/156/156 155/155/155
f 159/159/159 158/158/158 157/157/157
f 158/158/158 160/160/160 157/157/157
f 163/163/163 162/162/162 161/161/161
f 161/161/161 164/164/164 163/163/163
f 167/167/167 166/166/166 165/165/165
f 167/167/167 168/168/168 166/166/166
f 171/171/171 170/170/170 169/169/169
f 171/171/171 172/172/172 170/170/170
f 175/175/175 174/174/174 173/173/173
f 175/175/175 176/176/176 174/174/174
f 179/179/179 178/178/178 177/177/177
f 177/177/177 180/180/180 179/179/179
f 183/183/183 182/182/182 181/181/181
f 183/183/183 184/184/184 182/182/182
f 187/187/187 186/186/186 185/185/185
f 186/186/186 187/187/187 188/188/188
f 191/191/191 190/190/190 189/189/189
f 190/190/190 192/192/192 189/189/189
